<svg xmlns="http://www.w3.org/2000/svg" xmlns:xlink="http://www.w3.org/1999/xlink" xmlns:lucid="lucid" width="3020.1" height="1085.2"><g transform="translate(-20 -114.49999999999898)" lucid:page-tab-id="HgJcBLO1lsKA"><path d="M0 0h3676.8v1323.2H0z" fill="#fff"/><path d="M720 134.5l120 80.6-120 80.6-120-80.6z" stroke="#000" stroke-width="2" fill="#fff"/><use xlink:href="#a" transform="matrix(1,0,0,1,605,139.49999999999898) translate(91.025 36.39999999999999)"/><use xlink:href="#b" transform="matrix(1,0,0,1,605,139.49999999999898) translate(64.55 57.99999999999999)"/><use xlink:href="#c" transform="matrix(1,0,0,1,605,139.49999999999898) translate(46.525000000000006 79.6)"/><use xlink:href="#d" transform="matrix(1,0,0,1,605,139.49999999999898) translate(51.525000000000006 79.6)"/><use xlink:href="#e" transform="matrix(1,0,0,1,605,139.49999999999898) translate(95.525 79.6)"/><use xlink:href="#f" transform="matrix(1,0,0,1,605,139.49999999999898) translate(114.47500000000001 79.6)"/><use xlink:href="#g" transform="matrix(1,0,0,1,605,139.49999999999898) translate(163.47500000000002 79.6)"/><use xlink:href="#h" transform="matrix(1,0,0,1,605,139.49999999999898) translate(58.05 101.20000000000002)"/><use xlink:href="#i" transform="matrix(1,0,0,1,605,139.49999999999898) translate(151.95 101.20000000000002)"/><use xlink:href="#c" transform="matrix(1,0,0,1,605,139.49999999999898) translate(83 122.80000000000001)"/><use xlink:href="#j" transform="matrix(1,0,0,1,605,139.49999999999898) translate(88 122.80000000000001)"/><use xlink:href="#k" transform="matrix(1,0,0,1,605,139.49999999999898) translate(137 122.80000000000001)"/><path d="M841.8 215.1h817.3v284.16" stroke="#000" stroke-width="2" fill="none"/><path d="M841.8 216.1h-3v-.2l1.2-.8-1.2-.8v-.2h3zM1659.1 514.26l-4.63-14.27h9.27z"/><path d="M1659.1 517.5l-6-18.5h12zm-3.26-16.5l3.26 10.02 3.26-10.03z"/><use xlink:href="#l" transform="matrix(1,0,0,1,1018.5069580840799,189.49999999999898) translate(0 14.4)"/><path d="M2140.48 532.45l120 80.6-120 80.6-120-80.6z" stroke="#000" stroke-width="2" fill="#fff"/><use xlink:href="#m" transform="matrix(1,0,0,1,2025.4812569999704,537.450000000001) translate(50.849999999999994 47.19999999999999)"/><use xlink:href="#n" transform="matrix(1,0,0,1,2025.4812569999704,537.450000000001) translate(67.5 47.19999999999999)"/><use xlink:href="#o" transform="matrix(1,0,0,1,2025.4812569999704,537.450000000001) translate(107.29999999999998 47.19999999999999)"/><use xlink:href="#c" transform="matrix(1,0,0,1,2025.4812569999704,537.450000000001) translate(30.650000000000006 68.8)"/><use xlink:href="#p" transform="matrix(1,0,0,1,2025.4812569999704,537.450000000001) translate(35.650000000000006 68.8)"/><use xlink:href="#q" transform="matrix(1,0,0,1,2025.4812569999704,537.450000000001) translate(89.55000000000001 68.8)"/><use xlink:href="#e" transform="matrix(1,0,0,1,2025.4812569999704,537.450000000001) translate(130.5 68.8)"/><use xlink:href="#r" transform="matrix(1,0,0,1,2025.4812569999704,537.450000000001) translate(149.45 68.8)"/><use xlink:href="#c" transform="matrix(1,0,0,1,2025.4812569999704,537.450000000001) translate(62.074999999999996 90.4)"/><use xlink:href="#s" transform="matrix(1,0,0,1,2025.4812569999704,537.450000000001) translate(67.07499999999999 90.4)"/><use xlink:href="#t" transform="matrix(1,0,0,1,2025.4812569999704,537.450000000001) translate(76.55 112)"/><use xlink:href="#k" transform="matrix(1,0,0,1,2025.4812569999704,537.450000000001) translate(143.45 112)"/><path d="M2262.27 613.05h209" stroke="#000" stroke-width="2" fill="none"/><path d="M2262.27 614.05h-3v-.2l1.2-.8-1.2-.8v-.2h3zM2486.26 613.05L2472 617.7v-9.3z"/><path d="M2489.5 613.05l-18.5 6v-12zm-16.5 3.26l10.02-3.25-10.03-3.26z"/><use xlink:href="#u" transform="matrix(1,0,0,1,2279.6294884764957,587.4500000000011) translate(0 14.4)"/><path d="M2140.48 694.85v493.85h459.62v-45.16" stroke="#000" stroke-width="2" fill="none"/><path d="M2141.48 694.85h-2v-1.87l1 .67 1-.67zM2604.73 1142.8h-9.27l4.64-14.26z"/><path d="M2606.1 1143.8h-12.02l6.02-18.5zm-9.26-2h6.52l-3.26-10.02z"/><use xlink:href="#l" transform="matrix(1,0,0,1,2148.4812569999704,739.9854597385968) translate(0 14.4)"/><path d="M2600.1 962.9l120 80.6-120 80.6-120-80.6z" stroke="#000" stroke-width="2" fill="#fff"/><use xlink:href="#v" transform="matrix(1,0,0,1,2485.096152,967.9000000000452) translate(72.075 47.19999999999999)"/><use xlink:href="#w" transform="matrix(1,0,0,1,2485.096152,967.9000000000452) translate(109.025 47.19999999999999)"/><use xlink:href="#c" transform="matrix(1,0,0,1,2485.096152,967.9000000000452) translate(39.599999999999994 68.8)"/><use xlink:href="#x" transform="matrix(1,0,0,1,2485.096152,967.9000000000452) translate(44.599999999999994 68.8)"/><use xlink:href="#y" transform="matrix(1,0,0,1,2485.096152,967.9000000000452) translate(117.45 68.8)"/><use xlink:href="#z" transform="matrix(1,0,0,1,2485.096152,967.9000000000452) translate(142.45 68.8)"/><use xlink:href="#g" transform="matrix(1,0,0,1,2485.096152,967.9000000000452) translate(170.4 68.8)"/><use xlink:href="#A" transform="matrix(1,0,0,1,2485.096152,967.9000000000452) translate(76 90.4)"/><use xlink:href="#B" transform="matrix(1,0,0,1,2485.096152,967.9000000000452) translate(71.05 112)"/><use xlink:href="#k" transform="matrix(1,0,0,1,2485.096152,967.9000000000452) translate(148.95 112)"/><path d="M2255.1 858.7h160v120h-160z" stroke="#000" stroke-width="2" fill="#fff"/><use xlink:href="#C" transform="matrix(1,0,0,1,2260.096152,863.700000000001) translate(11.574999999999996 26.19999999999999)"/><use xlink:href="#D" transform="matrix(1,0,0,1,2260.096152,863.700000000001) translate(36.574999999999996 26.19999999999999)"/><use xlink:href="#E" transform="matrix(1,0,0,1,2260.096152,863.700000000001) translate(81.475 26.19999999999999)"/><use xlink:href="#F" transform="matrix(1,0,0,1,2260.096152,863.700000000001) translate(124.475 26.19999999999999)"/><use xlink:href="#G" transform="matrix(1,0,0,1,2260.096152,863.700000000001) translate(1.5250000000000057 47.79999999999999)"/><use xlink:href="#H" transform="matrix(1,0,0,1,2260.096152,863.700000000001) translate(26.525000000000006 47.79999999999999)"/><use xlink:href="#I" transform="matrix(1,0,0,1,2260.096152,863.700000000001) translate(51.525000000000006 47.79999999999999)"/><use xlink:href="#F" transform="matrix(1,0,0,1,2260.096152,863.700000000001) translate(134.525 47.79999999999999)"/><use xlink:href="#J" transform="matrix(1,0,0,1,2260.096152,863.700000000001) translate(16.25 69.39999999999999)"/><use xlink:href="#K" transform="matrix(1,0,0,1,2260.096152,863.700000000001) translate(54.2 69.39999999999999)"/><use xlink:href="#L" transform="matrix(1,0,0,1,2260.096152,863.700000000001) translate(109.75 69.39999999999999)"/><use xlink:href="#M" transform="matrix(1,0,0,1,2260.096152,863.700000000001) translate(24.549999999999997 91)"/><path d="M2478.3 1043.5h-141.4v-45.56" stroke="#000" stroke-width="2" fill="none"/><path d="M2481.3 1042.7l-1.2.8 1.2.8v.2h-3v-2h3zM2341.54 997.2h-9.27l4.63-14.26z"/><path d="M2342.9 998.2h-12l6-18.5zm-9.26-2h6.52l-3.26-10.03z"/><use xlink:href="#u" transform="matrix(1,0,0,1,2435.270322207905,1017.9000000000453) translate(0 14.4)"/><path d="M2721.9 1043.5h143.2v-45.56" stroke="#000" stroke-width="2" fill="none"/><path d="M2721.9 1044.5h-3v-.2l1.2-.8-1.2-.8v-.2h3zM2869.73 997.2h-9.27l4.64-14.26z"/><path d="M2871.1 998.2h-12.02l6.02-18.5zm-9.26-2h6.52l-3.26-10.03z"/><use xlink:href="#l" transform="matrix(1,0,0,1,2730.2984314288133,1017.9000000000453) translate(0 14.4)"/><path d="M2785.1 858.7h160v120h-160z" stroke="#000" stroke-width="2" fill="#fff"/><use xlink:href="#N" transform="matrix(1,0,0,1,2790.096152,863.700000000001) translate(15.049999999999997 15.399999999999993)"/><use xlink:href="#O" transform="matrix(1,0,0,1,2790.096152,863.700000000001) translate(61.05 15.399999999999993)"/><use xlink:href="#P" transform="matrix(1,0,0,1,2790.096152,863.700000000001) translate(3.375 36.99999999999999)"/><use xlink:href="#Q" transform="matrix(1,0,0,1,2790.096152,863.700000000001) translate(44.775 36.99999999999999)"/><use xlink:href="#D" transform="matrix(1,0,0,1,2790.096152,863.700000000001) translate(63.724999999999994 36.99999999999999)"/><use xlink:href="#R" transform="matrix(1,0,0,1,2790.096152,863.700000000001) translate(108.625 36.99999999999999)"/><use xlink:href="#S" transform="matrix(1,0,0,1,2790.096152,863.700000000001) translate(8.424999999999997 58.599999999999994)"/><use xlink:href="#d" transform="matrix(1,0,0,1,2790.096152,863.700000000001) translate(34.724999999999994 58.599999999999994)"/><use xlink:href="#Q" transform="matrix(1,0,0,1,2790.096152,863.700000000001) translate(78.725 58.599999999999994)"/><use xlink:href="#T" transform="matrix(1,0,0,1,2790.096152,863.700000000001) translate(97.675 58.599999999999994)"/><use xlink:href="#F" transform="matrix(1,0,0,1,2790.096152,863.700000000001) translate(127.625 58.599999999999994)"/><use xlink:href="#J" transform="matrix(1,0,0,1,2790.096152,863.700000000001) translate(10.074999999999989 80.20000000000002)"/><use xlink:href="#U" transform="matrix(1,0,0,1,2790.096152,863.700000000001) translate(48.02499999999999 80.20000000000002)"/><use xlink:href="#V" transform="matrix(1,0,0,1,2790.096152,863.700000000001) translate(86.975 80.20000000000002)"/><use xlink:href="#L" transform="matrix(1,0,0,1,2790.096152,863.700000000001) translate(115.925 80.20000000000002)"/><use xlink:href="#W" transform="matrix(1,0,0,1,2790.096152,863.700000000001) translate(29.549999999999997 101.80000000000001)"/><path d="M2335.1 857.7v-91.82h265.4v-73.6" stroke="#000" stroke-width="2" fill="none"/><path d="M2336.1 858.7h-2v-1h2zM2605.13 691.55h-9.27l4.64-14.26z"/><path d="M2606.5 692.55h-12.02l6.02-18.5zm-9.26-2h6.52l-3.26-10.03z"/><path d="M2865.1 857.7v-91.82h-264.6v-73.6" stroke="#000" stroke-width="2" fill="none"/><path d="M2866.1 858.7h-2v-1h2zM2605.13 691.55h-9.27l4.64-14.26z"/><path d="M2606.5 692.55h-12.02l6.02-18.5zm-9.26-2h6.52l-3.26-10.03z"/><path d="M720 296.9v59.76" stroke="#000" stroke-width="2" fill="none"/><path d="M721 296.9h-2v-1.87l1 .67 1-.67zM720 371.66l-4.64-14.27h9.28z"/><path d="M720 374.9l-6-18.5h12zm-3.26-16.5L720 368.4l3.26-10.03z"/><use xlink:href="#u" transform="matrix(1,0,0,1,728,301.0462855457734) translate(0 14.4)"/><path d="M720 376.1l120 80.6-120 80.6-120-80.6z" stroke="#000" stroke-width="2" fill="#fff"/><use xlink:href="#m" transform="matrix(1,0,0,1,605,381.0999999999989) translate(72.275 58)"/><use xlink:href="#n" transform="matrix(1,0,0,1,605,381.0999999999989) translate(88.92500000000001 58)"/><use xlink:href="#X" transform="matrix(1,0,0,1,605,381.0999999999989) translate(128.725 58)"/><use xlink:href="#Y" transform="matrix(1,0,0,1,605,381.0999999999989) translate(30.099999999999994 79.60000000000001)"/><use xlink:href="#Z" transform="matrix(1,0,0,1,605,381.0999999999989) translate(85.05 79.60000000000001)"/><use xlink:href="#aa" transform="matrix(1,0,0,1,605,381.0999999999989) translate(179.9 79.60000000000001)"/><use xlink:href="#c" transform="matrix(1,0,0,1,605,381.0999999999989) translate(35.07499999999999 101.20000000000002)"/><use xlink:href="#ab" transform="matrix(1,0,0,1,605,381.0999999999989) translate(40.07499999999999 101.20000000000002)"/><use xlink:href="#ac" transform="matrix(1,0,0,1,605,381.0999999999989) translate(98.02499999999999 101.20000000000002)"/><use xlink:href="#ad" transform="matrix(1,0,0,1,605,381.0999999999989) translate(123.02499999999999 101.20000000000002)"/><use xlink:href="#k" transform="matrix(1,0,0,1,605,381.0999999999989) translate(184.925 101.20000000000002)"/><path d="M1260 562.5l120 80.6-120 80.6-120-80.6z" stroke="#000" stroke-width="2" fill="#fff"/><use xlink:href="#ae" transform="matrix(1,0,0,1,1145,567.4999999999999) translate(78.525 47.19999999999999)"/><use xlink:href="#z" transform="matrix(1,0,0,1,1145,567.4999999999999) translate(103.525 47.19999999999999)"/><use xlink:href="#af" transform="matrix(1,0,0,1,1145,567.4999999999999) translate(131.47500000000002 47.19999999999999)"/><use xlink:href="#ag" transform="matrix(1,0,0,1,1145,567.4999999999999) translate(76 68.8)"/><use xlink:href="#ah" transform="matrix(1,0,0,1,1145,567.4999999999999) translate(51.599999999999994 90.4)"/><use xlink:href="#ai" transform="matrix(1,0,0,1,1145,567.4999999999999) translate(85.6 90.4)"/><use xlink:href="#aj" transform="matrix(1,0,0,1,1145,567.4999999999999) translate(140.55 90.4)"/><use xlink:href="#B" transform="matrix(1,0,0,1,1145,567.4999999999999) translate(71.05 112)"/><use xlink:href="#k" transform="matrix(1,0,0,1,1145,567.4999999999999) translate(148.95 112)"/><path d="M841.8 456.7H940v86.36" stroke="#000" stroke-width="2" fill="none"/><path d="M841.8 457.7h-3v-.2l1.2-.8-1.2-.8v-.2h3zM940 558.06l-4.64-14.27h9.28z"/><path d="M940 561.3l-6-18.5h12zm-3.26-16.5L940 554.8l3.26-10.03z"/><use xlink:href="#l" transform="matrix(1,0,0,1,860.7513132082984,431.0999999999988) translate(0 14.4)"/><path d="M1061.8 643.1h58.17" stroke="#000" stroke-width="2" fill="none"/><path d="M1061.8 644.1h-3v-.2l1.2-.8-1.2-.8v-.2h3zM1134.97 643.1l-14.27 4.64v-9.28z"/><path d="M1138.2 643.1l-18.5 6v-12zm-16.5 3.26l10.03-3.26-10.03-3.26z"/><use xlink:href="#l" transform="matrix(1,0,0,1,1057.2795845716391,617.5) translate(0 14.4)"/><path d="M940 562.5l120 80.6-120 80.6-120-80.6z" stroke="#000" stroke-width="2" fill="#fff"/><use xlink:href="#ak" transform="matrix(1,0,0,1,825,567.4999999999999) translate(78.07499999999999 58)"/><use xlink:href="#c" transform="matrix(1,0,0,1,825,567.4999999999999) translate(75.025 79.60000000000001)"/><use xlink:href="#ai" transform="matrix(1,0,0,1,825,567.4999999999999) translate(80.025 79.60000000000001)"/><use xlink:href="#al" transform="matrix(1,0,0,1,825,567.4999999999999) translate(134.97500000000002 79.60000000000001)"/><use xlink:href="#am" transform="matrix(1,0,0,1,825,567.4999999999999) translate(61.574999999999996 101.20000000000002)"/><use xlink:href="#k" transform="matrix(1,0,0,1,825,567.4999999999999) translate(158.425 101.20000000000002)"/><path d="M1180 358.7h160v120h-160z" stroke="#000" stroke-width="2" fill="#fff"/><use xlink:href="#an" transform="matrix(1,0,0,1,1185,363.70000000000095) translate(16.074999999999996 26.19999999999999)"/><use xlink:href="#H" transform="matrix(1,0,0,1,1185,363.70000000000095) translate(94.975 26.19999999999999)"/><use xlink:href="#ao" transform="matrix(1,0,0,1,1185,363.70000000000095) translate(119.975 26.19999999999999)"/><use xlink:href="#ap" transform="matrix(1,0,0,1,1185,363.70000000000095) translate(9.574999999999989 47.79999999999999)"/><use xlink:href="#E" transform="matrix(1,0,0,1,1185,363.70000000000095) translate(55.52499999999999 47.79999999999999)"/><use xlink:href="#e" transform="matrix(1,0,0,1,1185,363.70000000000095) translate(98.52499999999999 47.79999999999999)"/><use xlink:href="#aq" transform="matrix(1,0,0,1,1185,363.70000000000095) translate(117.475 47.79999999999999)"/><use xlink:href="#H" transform="matrix(1,0,0,1,1185,363.70000000000095) translate(14.024999999999999 69.39999999999999)"/><use xlink:href="#I" transform="matrix(1,0,0,1,1185,363.70000000000095) translate(39.025 69.39999999999999)"/><use xlink:href="#F" transform="matrix(1,0,0,1,1185,363.70000000000095) translate(122.025 69.39999999999999)"/><use xlink:href="#J" transform="matrix(1,0,0,1,1185,363.70000000000095) translate(30.574999999999996 91)"/><use xlink:href="#ar" transform="matrix(1,0,0,1,1185,363.70000000000095) translate(68.525 91)"/><path d="M1260 561.3v-63.36" stroke="#000" stroke-width="2" fill="none"/><path d="M1261 563.17l-1-.67-1 .67v-1.87h2zM1264.64 497.2h-9.28l4.64-14.26z"/><path d="M1266 498.2h-12l6-18.5zm-9.26-2h6.52l-3.26-10.03z"/><use xlink:href="#u" transform="matrix(1,0,0,1,1268,545.8177065377698) translate(0 14.4)"/><path d="M1800 613.05h200.45" stroke="#000" stroke-width="2" fill="none"/><path d="M1800 614.05h-3v-.17l1.2-.83-1.2-.83v-.17h3zM2015.45 613.05l-14.26 4.64v-9.3z"/><path d="M2018.7 613.05l-18.5 6v-12zm-16.5 3.26l10.02-3.25-10.03-3.26z"/><path d="M1341 418.7h88.6v194.35H1500" stroke="#000" stroke-width="2" fill="none"/><path d="M1341 419.7h-1v-2h1zM1514.98 613.05l-14.26 4.64v-9.3z"/><path d="M1518.22 613.05l-18.5 6v-12zm-16.5 3.26l10.03-3.25-10.03-3.26z"/><path d="M1180 822.5h160v120h-160z" stroke="#000" stroke-width="2" fill="#fff"/><use xlink:href="#as" transform="matrix(1,0,0,1,1185,827.5000000000475) translate(16.549999999999997 37)"/><use xlink:href="#p" transform="matrix(1,0,0,1,1185,827.5000000000475) translate(50.55 37)"/><use xlink:href="#at" transform="matrix(1,0,0,1,1185,827.5000000000475) translate(104.45 37)"/><use xlink:href="#ai" transform="matrix(1,0,0,1,1185,827.5000000000475) translate(4.574999999999989 58.6)"/><use xlink:href="#au" transform="matrix(1,0,0,1,1185,827.5000000000475) translate(59.52499999999999 58.6)"/><use xlink:href="#av" transform="matrix(1,0,0,1,1185,827.5000000000475) translate(98.52499999999999 58.6)"/><use xlink:href="#aw" transform="matrix(1,0,0,1,1185,827.5000000000475) translate(16.574999999999996 80.20000000000002)"/><use xlink:href="#ax" transform="matrix(1,0,0,1,1185,827.5000000000475) translate(41.574999999999996 80.20000000000002)"/><path d="M1260 724.9v78.36" stroke="#000" stroke-width="2" fill="none"/><path d="M1261 724.9h-2v-1.87l1 .67 1-.67zM1260 818.26l-4.64-14.26h9.28z"/><path d="M1260 821.5l-6-18.5h12zm-3.26-16.5l3.26 10.03 3.26-10.03z"/><g><use xlink:href="#l" transform="matrix(1,0,0,1,1268,722.3460043886148) translate(0 14.4)"/></g><path d="M1341 882.5h88.6V613.05H1500" stroke="#000" stroke-width="2" fill="none"/><path d="M1341 883.5h-1v-2h1zM1514.98 613.05l-14.26 4.64v-9.3z"/><path d="M1518.22 613.05l-18.5 6v-12zm-16.5 3.26l10.03-3.25-10.03-3.26z"/><path d="M1800 613.05h200.45" stroke="#000" stroke-width="2" fill="none"/><path d="M1800 614.05h-3v-.17l1.2-.83-1.2-.83v-.17h3zM2015.45 613.05l-14.26 4.64v-9.3z"/><path d="M2018.7 613.05l-18.5 6v-12zm-16.5 3.26l10.02-3.25-10.03-3.26z"/><g><use xlink:href="#l" transform="matrix(1,0,0,1,1841.5518512187432,587.4500000000011) translate(0 14.4)"/></g><path d="M720 538.5v204.56" stroke="#000" stroke-width="2" fill="none"/><path d="M721 538.5h-2v-1.87l1 .67 1-.67zM720 758.06l-4.64-14.27h9.28z"/><path d="M720 761.3l-6-18.5h12zm-3.26-16.5L720 754.8l3.26-10.03z"/><g><use xlink:href="#u" transform="matrix(1,0,0,1,728,558.5516476753046) translate(0 14.4)"/></g><path d="M720 762.5l120 80.6-120 80.6-120-80.6z" stroke="#000" stroke-width="2" fill="#fff"/><g><use xlink:href="#m" transform="matrix(1,0,0,1,605,767.4999999999997) translate(72.275 47.19999999999999)"/><use xlink:href="#n" transform="matrix(1,0,0,1,605,767.4999999999997) translate(88.92500000000001 47.19999999999999)"/><use xlink:href="#ay" transform="matrix(1,0,0,1,605,767.4999999999997) translate(128.725 47.19999999999999)"/><use xlink:href="#c" transform="matrix(1,0,0,1,605,767.4999999999997) translate(27.599999999999994 68.8)"/><use xlink:href="#ai" transform="matrix(1,0,0,1,605,767.4999999999997) translate(32.599999999999994 68.8)"/><use xlink:href="#Z" transform="matrix(1,0,0,1,605,767.4999999999997) translate(87.55 68.8)"/><use xlink:href="#az" transform="matrix(1,0,0,1,605,767.4999999999997) translate(182.4 68.8)"/><use xlink:href="#ab" transform="matrix(1,0,0,1,605,767.4999999999997) translate(25.125 90.4)"/><use xlink:href="#H" transform="matrix(1,0,0,1,605,767.4999999999997) translate(83.075 90.4)"/><use xlink:href="#Q" transform="matrix(1,0,0,1,605,767.4999999999997) translate(108.075 90.4)"/><use xlink:href="#aA" transform="matrix(1,0,0,1,605,767.4999999999997) translate(127.025 90.4)"/><use xlink:href="#aB" transform="matrix(1,0,0,1,605,767.4999999999997) translate(66.55 112)"/><use xlink:href="#ad" transform="matrix(1,0,0,1,605,767.4999999999997) translate(91.55 112)"/><use xlink:href="#k" transform="matrix(1,0,0,1,605,767.4999999999997) translate(153.45 112)"/></g><path d="M841.8 843.1H940v-99.96" stroke="#000" stroke-width="2" fill="none"/><path d="M841.8 844.1h-3v-.2l1.2-.8-1.2-.8v-.2h3zM944.64 742.4h-9.28l4.64-14.26z"/><path d="M946 743.4h-12l6-18.5zm-9.26-2h6.52L940 731.4z"/><g><use xlink:href="#l" transform="matrix(1,0,0,1,839.7826827234512,817.4999999999995) translate(0 14.4)"/></g><path d="M768 1022.5c17.67 0 32 17.9 32 40s-14.33 40-32 40h-96c-17.67 0-32-17.9-32-40s14.33-40 32-40z" stroke="#000" stroke-width="2" fill="#fff"/><g><use xlink:href="#aC" transform="matrix(1,0,0,1,645,1027.4999999999998) translate(24.025 27.799999999999997)"/><use xlink:href="#H" transform="matrix(1,0,0,1,645,1027.4999999999998) translate(60.025 27.799999999999997)"/><use xlink:href="#aD" transform="matrix(1,0,0,1,645,1027.4999999999998) translate(85.025 27.799999999999997)"/><use xlink:href="#aE" transform="matrix(1,0,0,1,645,1027.4999999999998) translate(34.574999999999996 49.4)"/></g><path d="M721 1003.26h-2V984h2zm0-40.86h-2v-37.5h2zM721 924.9h-2v-1.87l1 .67 1-.67zM720 1018.26l-4.64-14.26h9.28z"/><path d="M720 1021.5l-6-18.5h12zm-3.26-16.5l3.26 10.03 3.26-10.03z"/><g><use xlink:href="#aF" transform="matrix(1,0,0,1,708.525,962.4023154999998) translate(0 14.4)"/></g><path d="M216 295.7c24.3 0 44 21.58 44 48.2 0 26.62-19.7 48.2-44 48.2H84c-24.3 0-44-21.58-44-48.2 0-26.62 19.7-48.2 44-48.2z" stroke="#000" stroke-width="2" fill="#fff"/><g><use xlink:href="#aG" transform="matrix(1,0,0,1,45,300.69999999999897) translate(9.549999999999997 25.5)"/><use xlink:href="#aH" transform="matrix(1,0,0,1,45,300.69999999999897) translate(69.5 25.5)"/><use xlink:href="#d" transform="matrix(1,0,0,1,45,300.69999999999897) translate(136.45 25.5)"/><use xlink:href="#aI" transform="matrix(1,0,0,1,45,300.69999999999897) translate(180.45 25.5)"/><use xlink:href="#aJ" transform="matrix(1,0,0,1,45,300.69999999999897) translate(15.074999999999989 47.1)"/><use xlink:href="#H" transform="matrix(1,0,0,1,45,300.69999999999897) translate(127.925 47.1)"/><use xlink:href="#aK" transform="matrix(1,0,0,1,45,300.69999999999897) translate(152.925 47.1)"/><use xlink:href="#aL" transform="matrix(1,0,0,1,45,300.69999999999897) translate(11.150000000000006 68.7)"/><use xlink:href="#aM" transform="matrix(1,0,0,1,45,300.69999999999897) translate(124.95 68.7)"/></g><path d="M431 282.65h-2v-6.58h2zm148.97-66.55H431v16.77h-2V214.1h150.97zM431 284.65l-1-.75-1 .75v-2h2zM594.97 215.1l-14.27 4.64v-9.28z"/><path d="M598.2 215.1l-18.5 6v-12zm-16.5 3.26l10.03-3.26-10.03-3.26z"/><g><use xlink:href="#aN" transform="matrix(1,0,0,1,376.625,232.8721488585621) translate(0.005000000000002558 14.4)"/><use xlink:href="#aO" transform="matrix(1,0,0,1,376.625,232.8721488585621) translate(21.455000000000005 36)"/></g><path d="M431 455.7h148.97v2H429v-12.22h2zm0-31.82h-2v-18.73h2zM431 405.15h-2v-2l1 .75 1-.75zM594.97 456.7l-14.27 4.64v-9.28z"/><path d="M598.2 456.7l-18.5 6v-12zm-16.5 3.26l10.03-3.26-10.03-3.26z"/><g><use xlink:href="#aP" transform="matrix(1,0,0,1,374.625,423.87769650748675) translate(0 14.4)"/></g><path d="M261 343.9h69.1" stroke="#000" stroke-width="2" fill="none"/><path d="M261 344.9h-1.05l.05-1v-.8l-.02-.2H261zM345.1 343.9l-14.27 4.64v-9.28z"/><path d="M348.33 343.9l-18.5 6v-12zm-16.5 3.26l10.03-3.26-10.03-3.26z"/><path d="M430 283.9l80 60-80 60-80-60z" stroke="#000" stroke-width="2" fill="#fff"/><g><use xlink:href="#aQ" transform="matrix(1,0,0,1,355,288.8999999999544) translate(33.575 47.8)"/><use xlink:href="#aR" transform="matrix(1,0,0,1,355,288.8999999999544) translate(96.42500000000001 47.8)"/><use xlink:href="#c" transform="matrix(1,0,0,1,355,288.8999999999544) translate(38.525 69.4)"/><use xlink:href="#aS" transform="matrix(1,0,0,1,355,288.8999999999544) translate(43.525 69.4)"/><use xlink:href="#k" transform="matrix(1,0,0,1,355,288.8999999999544) translate(101.475 69.4)"/></g><path d="M2490.5 553.05h220v120h-220z" stroke="#000" stroke-width="2" fill="#fff"/><path d="M2512.5 553.05v120m176-120v120" stroke="#000" stroke-width="2" fill="none"/><g><use xlink:href="#aT" transform="matrix(1,0,0,1,2522.9961519999997,558.050000000001) translate(24.375 26.19999999999999)"/><use xlink:href="#aU" transform="matrix(1,0,0,1,2522.9961519999997,558.050000000001) translate(97.22500000000001 26.19999999999999)"/><use xlink:href="#aV" transform="matrix(1,0,0,1,2522.9961519999997,558.050000000001) translate(18.049999999999997 47.79999999999999)"/><use xlink:href="#g" transform="matrix(1,0,0,1,2522.9961519999997,558.050000000001) translate(116.95 47.79999999999999)"/><use xlink:href="#aW" transform="matrix(1,0,0,1,2522.9961519999997,558.050000000001) translate(4.099999999999994 69.39999999999999)"/><use xlink:href="#q" transform="matrix(1,0,0,1,2522.9961519999997,558.050000000001) translate(51.099999999999994 69.39999999999999)"/><use xlink:href="#Q" transform="matrix(1,0,0,1,2522.9961519999997,558.050000000001) translate(92.05 69.39999999999999)"/><use xlink:href="#aX" transform="matrix(1,0,0,1,2522.9961519999997,558.050000000001) translate(111 69.39999999999999)"/><use xlink:href="#aY" transform="matrix(1,0,0,1,2522.9961519999997,558.050000000001) translate(22.549999999999997 91)"/></g><path d="M2693.07 370.5c34.23 0 61.98 21.58 61.98 48.2 0 26.62-27.75 48.2-61.98 48.2h-185.95c-34.23 0-61.98-21.58-61.98-48.2 0-26.62 27.75-48.2 61.98-48.2z" stroke="#000" stroke-width="2" fill="#fff"/><g><use xlink:href="#aZ" transform="matrix(1,0,0,1,2450.144228,375.50000000000097) translate(29.57499999999999 25.5)"/><use xlink:href="#aS" transform="matrix(1,0,0,1,2450.144228,375.50000000000097) translate(106.52499999999999 25.5)"/><use xlink:href="#aH" transform="matrix(1,0,0,1,2450.144228,375.50000000000097) translate(164.475 25.5)"/><use xlink:href="#ba" transform="matrix(1,0,0,1,2450.144228,375.50000000000097) translate(231.425 25.5)"/><use xlink:href="#bb" transform="matrix(1,0,0,1,2450.144228,375.50000000000097) translate(6.099999999999994 47.1)"/><use xlink:href="#bc" transform="matrix(1,0,0,1,2450.144228,375.50000000000097) translate(126.3 47.1)"/><use xlink:href="#bd" transform="matrix(1,0,0,1,2450.144228,375.50000000000097) translate(194.6 47.1)"/><use xlink:href="#g" transform="matrix(1,0,0,1,2450.144228,375.50000000000097) translate(273.9 47.1)"/><use xlink:href="#Q" transform="matrix(1,0,0,1,2450.144228,375.50000000000097) translate(120.575 68.7)"/><use xlink:href="#be" transform="matrix(1,0,0,1,2450.144228,375.50000000000097) translate(139.525 68.7)"/></g><path d="M2600.5 552.05v-42.07h-.4v-23.84" stroke="#000" stroke-width="2" fill="none"/><path d="M2601.5 553.05h-2v-1h2zM2604.73 485.4h-9.27l4.64-14.26z"/><path d="M2606.1 486.4h-12.02l6.02-18.5zm-9.26-2h6.52l-3.26-10.03z"/><path d="M2600.1 369.5v-41.74h.4v-23.5" stroke="#000" stroke-width="2" fill="none"/><path d="M2601.1 370.5h-2v-1h2zM2605.13 303.53h-9.27l4.64-14.27z"/><path d="M2606.5 304.53h-12.02l6.02-18.5zm-9.26-2h6.52l-3.26-10.03z"/><path d="M2600.5 145.3l135 69.8-135 69.8-135-69.8z" stroke="#000" stroke-width="2" fill="#fff"/><g><use xlink:href="#bf" transform="matrix(1,0,0,1,2470.4961519999997,150.299999999999) translate(39.224999999999994 57.8)"/><use xlink:href="#bg" transform="matrix(1,0,0,1,2470.4961519999997,150.299999999999) translate(94.52499999999999 57.8)"/><use xlink:href="#bh" transform="matrix(1,0,0,1,2470.4961519999997,150.299999999999) translate(154.475 57.8)"/><use xlink:href="#c" transform="matrix(1,0,0,1,2470.4961519999997,150.299999999999) translate(74.57499999999999 79.4)"/><use xlink:href="#H" transform="matrix(1,0,0,1,2470.4961519999997,150.299999999999) translate(79.57499999999999 79.4)"/><use xlink:href="#Q" transform="matrix(1,0,0,1,2470.4961519999997,150.299999999999) translate(104.57499999999999 79.4)"/><use xlink:href="#bi" transform="matrix(1,0,0,1,2470.4961519999997,150.299999999999) translate(123.52499999999999 79.4)"/><use xlink:href="#k" transform="matrix(1,0,0,1,2470.4961519999997,150.299999999999) translate(175.425 79.4)"/></g><path d="M2463.32 215.1h-244" stroke="#000" stroke-width="2" fill="none"/><path d="M2466.32 214.67l-.82.43.82.43v.57h-3v-2h3zM2218.6 219.74l-14.27-4.64 14.27-4.64z"/><path d="M2219.6 221.1l-18.5-6 18.5-6zm-12.03-6l10.03 3.26v-6.52z"/><g><use xlink:href="#bj" transform="matrix(1,0,0,1,2314.0545120795,167.899999999999) translate(34.58 14.4)"/><use xlink:href="#bk" transform="matrix(1,0,0,1,2314.0545120795,167.899999999999) translate(0.0049999999999954525 36)"/></g><path d="M1919.1 215.1h-260v284.16" stroke="#000" stroke-width="2" fill="none"/><path d="M1920.1 216.1h-1v-2h1zM1659.1 514.26l-4.63-14.27h9.27z"/><path d="M1659.1 517.5l-6-18.5h12zm-3.26-16.5l3.26 10.02 3.26-10.03z"/><path d="M1920.1 145.3h280v139.6h-280z" stroke="#000" stroke-width="2" fill="#fff"/><path d="M1948.1 145.3v139.6m224-139.6v139.6" stroke="#000" stroke-width="2" fill="none"/><g><use xlink:href="#bl" transform="matrix(1,0,0,1,1960.096152,150.299999999999) translate(25.075000000000003 14.600000000000003)"/><use xlink:href="#d" transform="matrix(1,0,0,1,1960.096152,150.299999999999) translate(116.97500000000001 14.600000000000003)"/><use xlink:href="#ao" transform="matrix(1,0,0,1,1960.096152,150.299999999999) translate(160.97500000000002 14.600000000000003)"/><use xlink:href="#bm" transform="matrix(1,0,0,1,1960.096152,150.299999999999) translate(5.424999999999997 36.2)"/><use xlink:href="#ap" transform="matrix(1,0,0,1,1960.096152,150.299999999999) translate(60.325 36.2)"/><use xlink:href="#bn" transform="matrix(1,0,0,1,1960.096152,150.299999999999) translate(106.275 36.2)"/><use xlink:href="#aX" transform="matrix(1,0,0,1,1960.096152,150.299999999999) translate(154.675 36.2)"/><use xlink:href="#E" transform="matrix(1,0,0,1,1960.096152,150.299999999999) translate(27.07499999999999 57.800000000000004)"/><use xlink:href="#bo" transform="matrix(1,0,0,1,1960.096152,150.299999999999) translate(70.07499999999999 57.800000000000004)"/><use xlink:href="#bp" transform="matrix(1,0,0,1,1960.096152,150.299999999999) translate(27.299999999999997 79.40000000000002)"/><use xlink:href="#bq" transform="matrix(1,0,0,1,1960.096152,150.299999999999) translate(100.25 79.40000000000002)"/><use xlink:href="#br" transform="matrix(1,0,0,1,1960.096152,150.299999999999) translate(115.75 79.40000000000002)"/><use xlink:href="#bp" transform="matrix(1,0,0,1,1960.096152,150.299999999999) translate(4.074999999999989 101.00000000000001)"/><use xlink:href="#ac" transform="matrix(1,0,0,1,1960.096152,150.299999999999) translate(77.02499999999999 101.00000000000001)"/><use xlink:href="#bs" transform="matrix(1,0,0,1,1960.096152,150.299999999999) translate(102.02499999999999 101.00000000000001)"/><use xlink:href="#bt" transform="matrix(1,0,0,1,1960.096152,150.299999999999) translate(60.025 122.60000000000001)"/></g><path d="M1659.1 518.7l139.1 94.35-139.1 94.35-139.1-94.35z" stroke="#000" stroke-width="2" fill="#fff"/><g><use xlink:href="#bu" transform="matrix(1,0,0,1,1525,523.700000000001) translate(68.05 49.89999999999999)"/><use xlink:href="#bv" transform="matrix(1,0,0,1,1525,523.700000000001) translate(111 49.89999999999999)"/><use xlink:href="#bw" transform="matrix(1,0,0,1,1525,523.700000000001) translate(155 49.89999999999999)"/><use xlink:href="#bx" transform="matrix(1,0,0,1,1525,523.700000000001) translate(80.1 71.5)"/><use xlink:href="#n" transform="matrix(1,0,0,1,1525,523.700000000001) translate(94.1 71.5)"/><use xlink:href="#by" transform="matrix(1,0,0,1,1525,523.700000000001) translate(133.89999999999998 71.5)"/><use xlink:href="#bz" transform="matrix(1,0,0,1,1525,523.700000000001) translate(168.89999999999998 71.5)"/><use xlink:href="#c" transform="matrix(1,0,0,1,1525,523.700000000001) translate(69.125 93.1)"/><use xlink:href="#bA" transform="matrix(1,0,0,1,1525,523.700000000001) translate(74.125 93.1)"/><use xlink:href="#w" transform="matrix(1,0,0,1,1525,523.700000000001) translate(150.97500000000002 93.1)"/><use xlink:href="#bB" transform="matrix(1,0,0,1,1525,523.700000000001) translate(50.599999999999994 114.70000000000002)"/><use xlink:href="#bC" transform="matrix(1,0,0,1,1525,523.700000000001) translate(91.55 114.70000000000002)"/><use xlink:href="#bD" transform="matrix(1,0,0,1,1525,523.700000000001) translate(115.55 114.70000000000002)"/><use xlink:href="#c" transform="matrix(1,0,0,1,1525,523.700000000001) translate(90.525 136.3)"/><use xlink:href="#bp" transform="matrix(1,0,0,1,1525,523.700000000001) translate(95.525 136.3)"/><use xlink:href="#k" transform="matrix(1,0,0,1,1525,523.700000000001) translate(168.47500000000002 136.3)"/></g><path d="M1660.1 846.86h-2v-49.2h2zm0-70.8h-2V708.6h2zM1660.1 708.6h-2v-1.88l1 .68 1-.68zM1659.1 861.86l-4.63-14.26h9.27z"/><path d="M1659.1 865.1l-6-18.5h12zm-3.26-16.5l3.26 10.03 3.26-10.03z"/><g><use xlink:href="#u" transform="matrix(1,0,0,1,1639.1532525,776.054163330457) translate(0 14.4)"/></g><path d="M1707.1 866.1c17.68 0 32 17.9 32 40s-14.32 40-32 40h-96c-17.67 0-32-17.9-32-40s14.33-40 32-40z" stroke="#000" stroke-width="2" fill="#fff"/><g><use xlink:href="#bE" transform="matrix(1,0,0,1,1584.1032525,871.1000000000495) translate(60.55 38.6)"/></g><path d="M2735.5 215.1h105.36" stroke="#000" stroke-width="2" fill="none"/><path d="M2735.5 216.1h-1.94l1.94-1-1.94-1h1.94zM2855.86 215.1l-14.27 4.64v-9.28z"/><path d="M2859.1 215.1l-18.5 6v-12zm-16.5 3.26l10.02-3.26-10.03-3.26z"/><g><use xlink:href="#bF" transform="matrix(1,0,0,1,2755.560165262736,146.299999999999) translate(7.98 14.4)"/><use xlink:href="#bG" transform="matrix(1,0,0,1,2755.560165262736,146.299999999999) translate(4.354999999999997 36)"/><use xlink:href="#bH" transform="matrix(1,0,0,1,2755.560165262736,146.299999999999) translate(0.004999999999999005 57.6)"/></g><path d="M2988.1 175.1c17.67 0 32 17.9 32 40s-14.33 40-32 40h-96c-17.68 0-32-17.9-32-40s14.32-40 32-40z" stroke="#000" stroke-width="2" fill="#fff"/><g><use xlink:href="#bE" transform="matrix(1,0,0,1,2865.096152,180.09999999999897) translate(60.55 38.6)"/></g><defs><path d="M233-177c-1 41-23 64-60 70L243 0h-38l-65-103H63V0H30v-248c88 3 205-21 203 71zM63-129c60-2 137 13 137-47 0-61-80-42-137-45v92" id="bI"/><path d="M100-194c62-1 85 37 85 99 1 63-27 99-86 99S16-35 15-95c0-66 28-99 85-99zM99-20c44 1 53-31 53-75 0-43-8-75-51-75s-53 32-53 75 10 74 51 75" id="bJ"/><path d="M84 4C-5 8 30-112 23-190h32v120c0 31 7 50 39 49 72-2 45-101 50-169h31l1 190h-30c-1-10 1-25-2-33-11 22-28 36-60 37" id="bK"/><path d="M59-47c-2 24 18 29 38 22v24C64 9 27 4 27-40v-127H5v-23h24l9-43h21v43h35v23H59v120" id="bL"/><path d="M100-194c63 0 86 42 84 106H49c0 40 14 67 53 68 26 1 43-12 49-29l28 8c-11 28-37 45-77 45C44 4 14-33 15-96c1-61 26-98 85-98zm52 81c6-60-76-77-97-28-3 7-6 17-6 28h103" id="bM"/><g id="a"><use transform="matrix(0.05,0,0,0.05,0,0)" xlink:href="#bI"/><use transform="matrix(0.05,0,0,0.05,12.950000000000001,0)" xlink:href="#bJ"/><use transform="matrix(0.05,0,0,0.05,22.950000000000003,0)" xlink:href="#bK"/><use transform="matrix(0.05,0,0,0.05,32.95,0)" xlink:href="#bL"/><use transform="matrix(0.05,0,0,0.05,37.95,0)" xlink:href="#bM"/></g><path d="M135-143c-3-34-86-38-87 0 15 53 115 12 119 90S17 21 10-45l28-5c4 36 97 45 98 0-10-56-113-15-118-90-4-57 82-63 122-42 12 7 21 19 24 35" id="bN"/><path d="M100-194c63 0 86 42 84 106H49c0 40 14 67 53 68 26 1 43-12 49-29l28 8c-11 28-37 45-77 45C44 4 14-33 15-96c1-61 26-98 85-98zm52 81c6-60-76-77-97-28-3 7-6 17-6 28h103zm-74-98c8-23 27-35 38-54h36v5l-58 49H78" id="bO"/><path d="M24 0v-261h32V0H24" id="bP"/><path d="M96-169c-40 0-48 33-48 73s9 75 48 75c24 0 41-14 43-38l32 2c-6 37-31 61-74 61-59 0-76-41-82-99-10-93 101-131 147-64 4 7 5 14 7 22l-32 3c-4-21-16-35-41-35" id="bQ"/><path d="M24-231v-30h32v30H24zM24 0v-190h32V0H24" id="bR"/><path d="M117-194c89-4 53 116 60 194h-32v-121c0-31-8-49-39-48C34-167 62-67 57 0H25l-1-190h30c1 10-1 24 2 32 11-22 29-35 61-36" id="bS"/><g id="b"><use transform="matrix(0.05,0,0,0.05,0,0)" xlink:href="#bN"/><use transform="matrix(0.05,0,0,0.05,9,0)" xlink:href="#bO"/><use transform="matrix(0.05,0,0,0.05,19,0)" xlink:href="#bP"/><use transform="matrix(0.05,0,0,0.05,22.95,0)" xlink:href="#bM"/><use transform="matrix(0.05,0,0,0.05,32.95,0)" xlink:href="#bQ"/><use transform="matrix(0.05,0,0,0.05,41.95,0)" xlink:href="#bL"/><use transform="matrix(0.05,0,0,0.05,46.95,0)" xlink:href="#bR"/><use transform="matrix(0.05,0,0,0.05,50.900000000000006,0)" xlink:href="#bJ"/><use transform="matrix(0.05,0,0,0.05,60.900000000000006,0)" xlink:href="#bS"/><use transform="matrix(0.05,0,0,0.05,70.9,0)" xlink:href="#bS"/><use transform="matrix(0.05,0,0,0.05,80.9,0)" xlink:href="#bO"/><use transform="matrix(0.05,0,0,0.05,90.9,0)" xlink:href="#bM"/></g><path d="M85-194c31 0 48 13 60 33l-1-100h32l1 261h-30c-2-10 0-23-3-31C134-8 116 4 85 4 32 4 16-35 15-94c0-66 23-100 70-100zm9 24c-40 0-46 34-46 75 0 40 6 74 45 74 42 0 51-32 51-76 0-42-9-74-50-73" id="bT"/><path d="M141-36C126-15 110 5 73 4 37 3 15-17 15-53c-1-64 63-63 125-63 3-35-9-54-41-54-24 1-41 7-42 31l-33-3c5-37 33-52 76-52 45 0 72 20 72 64v82c-1 20 7 32 28 27v20c-31 9-61-2-59-35zM48-53c0 20 12 33 32 33 41-3 63-29 60-74-43 2-92-5-92 41" id="bU"/><g id="d"><use transform="matrix(0.05,0,0,0.05,0,0)" xlink:href="#bT"/><use transform="matrix(0.05,0,0,0.05,10,0)" xlink:href="#bU"/><use transform="matrix(0.05,0,0,0.05,20,0)" xlink:href="#bS"/><use transform="matrix(0.05,0,0,0.05,30,0)" xlink:href="#bN"/></g><g id="e"><use transform="matrix(0.05,0,0,0.05,0,0)" xlink:href="#bP"/><use transform="matrix(0.05,0,0,0.05,3.95,0)" xlink:href="#bM"/></g><path d="M115-194c55 1 70 41 70 98S169 2 115 4C84 4 66-9 55-30l1 105H24l-1-265h31l2 30c10-21 28-34 59-34zm-8 174c40 0 45-34 45-75s-6-73-45-74c-42 0-51 32-51 76 0 43 10 73 51 73" id="bV"/><g id="f"><use transform="matrix(0.05,0,0,0.05,0,0)" xlink:href="#bV"/><use transform="matrix(0.05,0,0,0.05,10,0)" xlink:href="#bJ"/><use transform="matrix(0.05,0,0,0.05,20,0)" xlink:href="#bN"/><use transform="matrix(0.05,0,0,0.05,29,0)" xlink:href="#bL"/><use transform="matrix(0.05,0,0,0.05,34,0)" xlink:href="#bM"/></g><g id="g"><use transform="matrix(0.05,0,0,0.05,0,0)" xlink:href="#bT"/><use transform="matrix(0.05,0,0,0.05,10,0)" xlink:href="#bM"/></g><path d="M210-169c-67 3-38 105-44 169h-31v-121c0-29-5-50-35-48C34-165 62-65 56 0H25l-1-190h30c1 10-1 24 2 32 10-44 99-50 107 0 11-21 27-35 58-36 85-2 47 119 55 194h-31v-121c0-29-5-49-35-48" id="bW"/><g id="h"><use transform="matrix(0.05,0,0,0.05,0,0)" xlink:href="#bQ"/><use transform="matrix(0.05,0,0,0.05,9,0)" xlink:href="#bJ"/><use transform="matrix(0.05,0,0,0.05,19,0)" xlink:href="#bW"/><use transform="matrix(0.05,0,0,0.05,33.95,0)" xlink:href="#bW"/><use transform="matrix(0.05,0,0,0.05,48.900000000000006,0)" xlink:href="#bU"/><use transform="matrix(0.05,0,0,0.05,58.900000000000006,0)" xlink:href="#bS"/><use transform="matrix(0.05,0,0,0.05,68.9,0)" xlink:href="#bT"/><use transform="matrix(0.05,0,0,0.05,78.9,0)" xlink:href="#bM"/></g><g id="i"><use transform="matrix(0.05,0,0,0.05,0,0)" xlink:href="#bT"/><use transform="matrix(0.05,0,0,0.05,10,0)" xlink:href="#bM"/></g><path d="M108 0H70L1-190h34L89-25l56-165h34" id="bX"/><g id="j"><use transform="matrix(0.05,0,0,0.05,0,0)" xlink:href="#bX"/><use transform="matrix(0.05,0,0,0.05,9,0)" xlink:href="#bM"/><use transform="matrix(0.05,0,0,0.05,19,0)" xlink:href="#bS"/><use transform="matrix(0.05,0,0,0.05,29,0)" xlink:href="#bL"/><use transform="matrix(0.05,0,0,0.05,34,0)" xlink:href="#bM"/></g><path d="M103-251c84 0 111 97 45 133-19 10-37 24-39 52H78c0-63 77-55 77-114 0-30-21-42-52-43-32 0-53 17-56 46l-32-2c7-45 34-72 88-72zM77 0v-35h34V0H77" id="bY"/><use transform="matrix(0.05,0,0,0.05,0,0)" xlink:href="#bY" id="k"/><path d="M140-251c81 0 123 46 123 126C263-46 219 4 140 4 59 4 17-45 17-125s42-126 123-126zm0 227c63 0 89-41 89-101s-29-99-89-99c-61 0-89 39-89 99S79-25 140-24" id="bZ"/><path d="M232-93c-1 65-40 97-104 97C67 4 28-28 28-90v-158h33c8 89-33 224 67 224 102 0 64-133 71-224h33v155" id="ca"/><path d="M33 0v-248h34V0H33" id="cb"/><g id="l"><use transform="matrix(0.05,0,0,0.05,0,0)" xlink:href="#bZ"/><use transform="matrix(0.05,0,0,0.05,14,0)" xlink:href="#ca"/><use transform="matrix(0.05,0,0,0.05,26.950000000000003,0)" xlink:href="#cb"/></g><path d="M137-103V0h-34v-103L8-248h37l75 118 75-118h37" id="cc"/><use transform="matrix(0.05,0,0,0.05,0,0)" xlink:href="#cc" id="m"/><path d="M16-82v-28h88v28H16" id="cd"/><g id="n"><use transform="matrix(0.05,0,0,0.05,0,0)" xlink:href="#bU"/><use transform="matrix(0.05,0,0,0.05,10,0)" xlink:href="#cd"/><use transform="matrix(0.05,0,0,0.05,15.949999999999998,0)" xlink:href="#bL"/><use transform="matrix(0.05,0,0,0.05,20.95,0)" xlink:href="#cd"/><use transform="matrix(0.05,0,0,0.05,26.899999999999995,0)" xlink:href="#bR"/><use transform="matrix(0.05,0,0,0.05,30.849999999999994,0)" xlink:href="#bP"/></g><path d="M114-163C36-179 61-72 57 0H25l-1-190h30c1 12-1 29 2 39 6-27 23-49 58-41v29" id="ce"/><g id="o"><use transform="matrix(0.05,0,0,0.05,0,0)" xlink:href="#bV"/><use transform="matrix(0.05,0,0,0.05,10,0)" xlink:href="#bP"/><use transform="matrix(0.05,0,0,0.05,13.949999999999998,0)" xlink:href="#bK"/><use transform="matrix(0.05,0,0,0.05,23.95,0)" xlink:href="#bN"/><use transform="matrix(0.05,0,0,0.05,32.95,0)" xlink:href="#bR"/><use transform="matrix(0.05,0,0,0.05,36.900000000000006,0)" xlink:href="#bM"/><use transform="matrix(0.05,0,0,0.05,46.900000000000006,0)" xlink:href="#bK"/><use transform="matrix(0.05,0,0,0.05,56.900000000000006,0)" xlink:href="#ce"/><use transform="matrix(0.05,0,0,0.05,62.85,0)" xlink:href="#bN"/></g><path d="M100-194c63 0 86 42 84 106H49c0 40 14 67 53 68 26 1 43-12 49-29l28 8c-11 28-37 45-77 45C44 4 14-33 15-96c1-61 26-98 85-98zm52 81c6-60-76-77-97-28-3 7-6 17-6 28h103zm-36-98l-58-49v-5h36c12 19 30 32 38 54h-16" id="cf"/><path d="M177-190C167-65 218 103 67 71c-23-6-38-20-44-43l32-5c15 47 100 32 89-28v-30C133-14 115 1 83 1 29 1 15-40 15-95c0-56 16-97 71-98 29-1 48 16 59 35 1-10 0-23 2-32h30zM94-22c36 0 50-32 50-73 0-42-14-75-50-75-39 0-46 34-46 75s6 73 46 73" id="cg"/><g id="p"><use transform="matrix(0.05,0,0,0.05,0,0)" xlink:href="#ce"/><use transform="matrix(0.05,0,0,0.05,5.95,0)" xlink:href="#cf"/><use transform="matrix(0.05,0,0,0.05,15.949999999999998,0)" xlink:href="#cg"/><use transform="matrix(0.05,0,0,0.05,25.950000000000003,0)" xlink:href="#bP"/><use transform="matrix(0.05,0,0,0.05,29.899999999999995,0)" xlink:href="#bM"/><use transform="matrix(0.05,0,0,0.05,39.9,0)" xlink:href="#bN"/></g><g id="q"><use transform="matrix(0.05,0,0,0.05,0,0)" xlink:href="#bV"/><use transform="matrix(0.05,0,0,0.05,10,0)" xlink:href="#bJ"/><use transform="matrix(0.05,0,0,0.05,20,0)" xlink:href="#bK"/><use transform="matrix(0.05,0,0,0.05,30,0)" xlink:href="#ce"/></g><path d="M100-194c63 0 86 42 84 106H49c0 40 14 67 53 68 26 1 43-12 49-29l28 8c-11 28-37 45-77 45C44 4 14-33 15-96c1-61 26-98 85-98zm52 81c6-60-76-77-97-28-3 7-6 17-6 28h103zm-32-149c12 18 30 30 39 51-31 2-38-20-57-30-20 10-27 32-59 30 9-22 29-33 41-51h36" id="ch"/><g id="r"><use transform="matrix(0.05,0,0,0.05,0,0)" xlink:href="#bW"/><use transform="matrix(0.05,0,0,0.05,14.950000000000001,0)" xlink:href="#ch"/><use transform="matrix(0.05,0,0,0.05,24.950000000000003,0)" xlink:href="#bW"/><use transform="matrix(0.05,0,0,0.05,39.900000000000006,0)" xlink:href="#bM"/></g><g id="s"><use transform="matrix(0.05,0,0,0.05,0,0)" xlink:href="#bV"/><use transform="matrix(0.05,0,0,0.05,10,0)" xlink:href="#ce"/><use transform="matrix(0.05,0,0,0.05,15.949999999999998,0)" xlink:href="#bJ"/><use transform="matrix(0.05,0,0,0.05,25.950000000000003,0)" xlink:href="#bQ"/><use transform="matrix(0.05,0,0,0.05,34.95,0)" xlink:href="#bK"/><use transform="matrix(0.05,0,0,0.05,44.95,0)" xlink:href="#ce"/><use transform="matrix(0.05,0,0,0.05,50.900000000000006,0)" xlink:href="#bM"/><use transform="matrix(0.05,0,0,0.05,60.900000000000006,0)" xlink:href="#bW"/><use transform="matrix(0.05,0,0,0.05,75.85000000000001,0)" xlink:href="#bM"/><use transform="matrix(0.05,0,0,0.05,85.85000000000001,0)" xlink:href="#bS"/><use transform="matrix(0.05,0,0,0.05,95.85000000000001,0)" xlink:href="#bL"/></g><g id="t"><use transform="matrix(0.05,0,0,0.05,0,0)" xlink:href="#bP"/><use transform="matrix(0.05,0,0,0.05,3.95,0)" xlink:href="#bJ"/><use transform="matrix(0.05,0,0,0.05,13.949999999999998,0)" xlink:href="#bQ"/><use transform="matrix(0.05,0,0,0.05,22.95,0)" xlink:href="#bU"/><use transform="matrix(0.05,0,0,0.05,32.95,0)" xlink:href="#bL"/><use transform="matrix(0.05,0,0,0.05,37.95,0)" xlink:href="#bR"/><use transform="matrix(0.05,0,0,0.05,41.900000000000006,0)" xlink:href="#bJ"/><use transform="matrix(0.05,0,0,0.05,51.900000000000006,0)" xlink:href="#bS"/></g><path d="M190 0L58-211 59 0H30v-248h39L202-35l-2-213h31V0h-41" id="ci"/><g id="u"><use transform="matrix(0.05,0,0,0.05,0,0)" xlink:href="#ci"/><use transform="matrix(0.05,0,0,0.05,12.950000000000001,0)" xlink:href="#bZ"/><use transform="matrix(0.05,0,0,0.05,26.950000000000003,0)" xlink:href="#ci"/></g><path d="M212-179c-10-28-35-45-73-45-59 0-87 40-87 99 0 60 29 101 89 101 43 0 62-24 78-52l27 14C228-24 195 4 139 4 59 4 22-46 18-125c-6-104 99-153 187-111 19 9 31 26 39 46" id="cj"/><g id="v"><use transform="matrix(0.05,0,0,0.05,0,0)" xlink:href="#cj"/><use transform="matrix(0.05,0,0,0.05,12.950000000000001,0)" xlink:href="#bM"/><use transform="matrix(0.05,0,0,0.05,22.950000000000003,0)" xlink:href="#bN"/></g><g id="w"><use transform="matrix(0.05,0,0,0.05,0,0)" xlink:href="#ce"/><use transform="matrix(0.05,0,0,0.05,5.95,0)" xlink:href="#cf"/><use transform="matrix(0.05,0,0,0.05,15.949999999999998,0)" xlink:href="#cg"/><use transform="matrix(0.05,0,0,0.05,25.950000000000003,0)" xlink:href="#bP"/><use transform="matrix(0.05,0,0,0.05,29.899999999999995,0)" xlink:href="#bM"/><use transform="matrix(0.05,0,0,0.05,39.9,0)" xlink:href="#bN"/></g><g id="x"><use transform="matrix(0.05,0,0,0.05,0,0)" xlink:href="#bJ"/><use transform="matrix(0.05,0,0,0.05,10,0)" xlink:href="#bS"/><use transform="matrix(0.05,0,0,0.05,20,0)" xlink:href="#bL"/><use transform="matrix(0.05,0,0,0.05,25,0)" xlink:href="#cd"/><use transform="matrix(0.05,0,0,0.05,30.950000000000003,0)" xlink:href="#bM"/><use transform="matrix(0.05,0,0,0.05,40.95,0)" xlink:href="#bP"/><use transform="matrix(0.05,0,0,0.05,44.900000000000006,0)" xlink:href="#bP"/><use transform="matrix(0.05,0,0,0.05,48.85000000000001,0)" xlink:href="#bM"/><use transform="matrix(0.05,0,0,0.05,58.85,0)" xlink:href="#bN"/></g><g id="y"><use transform="matrix(0.05,0,0,0.05,0,0)" xlink:href="#bK"/><use transform="matrix(0.05,0,0,0.05,10,0)" xlink:href="#bS"/></g><g id="z"><use transform="matrix(0.05,0,0,0.05,0,0)" xlink:href="#ci"/><use transform="matrix(0.05,0,0,0.05,12.950000000000001,0)" xlink:href="#bJ"/></g><path d="M145-31C134-9 116 4 85 4 32 4 16-35 15-94c0-59 17-99 70-100 32-1 48 14 60 33 0-11-1-24 2-32h30l-1 268h-32zM93-21c41 0 51-33 51-76s-8-73-50-73c-40 0-46 35-46 75s5 74 45 74" id="ck"/><g id="A"><use transform="matrix(0.05,0,0,0.05,0,0)" xlink:href="#bN"/><use transform="matrix(0.05,0,0,0.05,9,0)" xlink:href="#bO"/><use transform="matrix(0.05,0,0,0.05,19,0)" xlink:href="#ck"/><use transform="matrix(0.05,0,0,0.05,29,0)" xlink:href="#bK"/><use transform="matrix(0.05,0,0,0.05,39,0)" xlink:href="#bM"/><use transform="matrix(0.05,0,0,0.05,49,0)" xlink:href="#bS"/><use transform="matrix(0.05,0,0,0.05,59,0)" xlink:href="#bQ"/><use transform="matrix(0.05,0,0,0.05,68,0)" xlink:href="#bM"/></g><g id="B"><use transform="matrix(0.05,0,0,0.05,0,0)" xlink:href="#bR"/><use transform="matrix(0.05,0,0,0.05,3.95,0)" xlink:href="#bT"/><use transform="matrix(0.05,0,0,0.05,13.949999999999998,0)" xlink:href="#bM"/><use transform="matrix(0.05,0,0,0.05,23.95,0)" xlink:href="#bS"/><use transform="matrix(0.05,0,0,0.05,33.95,0)" xlink:href="#bL"/><use transform="matrix(0.05,0,0,0.05,38.95,0)" xlink:href="#bR"/><use transform="matrix(0.05,0,0,0.05,42.900000000000006,0)" xlink:href="#ck"/><use transform="matrix(0.05,0,0,0.05,52.900000000000006,0)" xlink:href="#bK"/><use transform="matrix(0.05,0,0,0.05,62.900000000000006,0)" xlink:href="#bM"/></g><path d="M30 0v-248h33v221h125V0H30" id="cl"/><g id="C"><use transform="matrix(0.05,0,0,0.05,0,0)" xlink:href="#cl"/><use transform="matrix(0.05,0,0,0.05,10,0)" xlink:href="#bU"/></g><g id="D"><use transform="matrix(0.05,0,0,0.05,0,0)" xlink:href="#ce"/><use transform="matrix(0.05,0,0,0.05,5.95,0)" xlink:href="#cf"/><use transform="matrix(0.05,0,0,0.05,15.949999999999998,0)" xlink:href="#cg"/><use transform="matrix(0.05,0,0,0.05,25.950000000000003,0)" xlink:href="#bP"/><use transform="matrix(0.05,0,0,0.05,29.899999999999995,0)" xlink:href="#bM"/></g><g id="E"><use transform="matrix(0.05,0,0,0.05,0,0)" xlink:href="#bU"/><use transform="matrix(0.05,0,0,0.05,10,0)" xlink:href="#bX"/><use transform="matrix(0.05,0,0,0.05,19,0)" xlink:href="#bM"/><use transform="matrix(0.05,0,0,0.05,29,0)" xlink:href="#bQ"/></g><g id="F"><use transform="matrix(0.05,0,0,0.05,0,0)" xlink:href="#bP"/><use transform="matrix(0.05,0,0,0.05,3.95,0)" xlink:href="#bM"/></g><g id="G"><use transform="matrix(0.05,0,0,0.05,0,0)" xlink:href="#bS"/><use transform="matrix(0.05,0,0,0.05,10,0)" xlink:href="#bJ"/></g><g id="H"><use transform="matrix(0.05,0,0,0.05,0,0)" xlink:href="#bT"/><use transform="matrix(0.05,0,0,0.05,10,0)" xlink:href="#bM"/></g><g id="I"><use transform="matrix(0.05,0,0,0.05,0,0)" xlink:href="#bN"/><use transform="matrix(0.05,0,0,0.05,9,0)" xlink:href="#bO"/><use transform="matrix(0.05,0,0,0.05,19,0)" xlink:href="#ck"/><use transform="matrix(0.05,0,0,0.05,29,0)" xlink:href="#bK"/><use transform="matrix(0.05,0,0,0.05,39,0)" xlink:href="#bM"/><use transform="matrix(0.05,0,0,0.05,49,0)" xlink:href="#bS"/><use transform="matrix(0.05,0,0,0.05,59,0)" xlink:href="#bQ"/><use transform="matrix(0.05,0,0,0.05,68,0)" xlink:href="#bM"/></g><g id="J"><use transform="matrix(0.05,0,0,0.05,0,0)" xlink:href="#bV"/><use transform="matrix(0.05,0,0,0.05,10,0)" xlink:href="#bP"/><use transform="matrix(0.05,0,0,0.05,13.949999999999998,0)" xlink:href="#bK"/><use transform="matrix(0.05,0,0,0.05,23.95,0)" xlink:href="#bN"/></g><path d="M30-248c87 1 191-15 191 75 0 78-77 80-158 76V0H30v-248zm33 125c57 0 124 11 124-50 0-59-68-47-124-48v98" id="cm"/><path d="M30 0v-248h187v28H63v79h144v27H63v87h162V0H30" id="cn"/><path d="M127-220V0H93v-220H8v-28h204v28h-85" id="co"/><g id="K"><use transform="matrix(0.05,0,0,0.05,0,0)" xlink:href="#cm"/><use transform="matrix(0.05,0,0,0.05,12,0)" xlink:href="#cn"/><use transform="matrix(0.05,0,0,0.05,24,0)" xlink:href="#co"/><use transform="matrix(0.05,0,0,0.05,34.95,0)" xlink:href="#cb"/><use transform="matrix(0.05,0,0,0.05,39.95,0)" xlink:href="#co"/></g><g id="L"><use transform="matrix(0.05,0,0,0.05,0,0)" xlink:href="#bM"/><use transform="matrix(0.05,0,0,0.05,10,0)" xlink:href="#bN"/><use transform="matrix(0.05,0,0,0.05,19,0)" xlink:href="#bL"/></g><g id="M"><use transform="matrix(0.05,0,0,0.05,0,0)" xlink:href="#bN"/><use transform="matrix(0.05,0,0,0.05,9,0)" xlink:href="#bO"/><use transform="matrix(0.05,0,0,0.05,19,0)" xlink:href="#bP"/><use transform="matrix(0.05,0,0,0.05,22.95,0)" xlink:href="#bM"/><use transform="matrix(0.05,0,0,0.05,32.95,0)" xlink:href="#bQ"/><use transform="matrix(0.05,0,0,0.05,41.95,0)" xlink:href="#bL"/><use transform="matrix(0.05,0,0,0.05,46.95,0)" xlink:href="#bR"/><use transform="matrix(0.05,0,0,0.05,50.900000000000006,0)" xlink:href="#bJ"/><use transform="matrix(0.05,0,0,0.05,60.900000000000006,0)" xlink:href="#bS"/><use transform="matrix(0.05,0,0,0.05,70.9,0)" xlink:href="#bS"/><use transform="matrix(0.05,0,0,0.05,80.9,0)" xlink:href="#bO"/><use transform="matrix(0.05,0,0,0.05,90.9,0)" xlink:href="#bM"/></g><path d="M185-189c-5-48-123-54-124 2 14 75 158 14 163 119 3 78-121 87-175 55-17-10-28-26-33-46l33-7c5 56 141 63 141-1 0-78-155-14-162-118-5-82 145-84 179-34 5 7 8 16 11 25" id="cp"/><g id="N"><use transform="matrix(0.05,0,0,0.05,0,0)" xlink:href="#cp"/><use transform="matrix(0.05,0,0,0.05,12,0)" xlink:href="#bU"/><use transform="matrix(0.05,0,0,0.05,22,0)" xlink:href="#bS"/><use transform="matrix(0.05,0,0,0.05,32,0)" xlink:href="#bN"/></g><path d="M68-38c1 34 0 65-14 84H32c9-13 17-26 17-46H33v-38h35" id="cq"/><g id="O"><use transform="matrix(0.05,0,0,0.05,0,0)" xlink:href="#bQ"/><use transform="matrix(0.05,0,0,0.05,9,0)" xlink:href="#bM"/><use transform="matrix(0.05,0,0,0.05,19,0)" xlink:href="#ce"/><use transform="matrix(0.05,0,0,0.05,24.95,0)" xlink:href="#bL"/><use transform="matrix(0.05,0,0,0.05,29.950000000000003,0)" xlink:href="#bR"/><use transform="matrix(0.05,0,0,0.05,33.9,0)" xlink:href="#bL"/><use transform="matrix(0.05,0,0,0.05,38.9,0)" xlink:href="#bK"/><use transform="matrix(0.05,0,0,0.05,48.9,0)" xlink:href="#bT"/><use transform="matrix(0.05,0,0,0.05,58.900000000000006,0)" xlink:href="#bM"/><use transform="matrix(0.05,0,0,0.05,68.9,0)" xlink:href="#cq"/></g><path d="M47-170H22l-4-78h33" id="cr"/><g id="P"><use transform="matrix(0.05,0,0,0.05,0,0)" xlink:href="#bQ"/><use transform="matrix(0.05,0,0,0.05,9,0)" xlink:href="#cr"/><use transform="matrix(0.05,0,0,0.05,12.4,0)" xlink:href="#bM"/><use transform="matrix(0.05,0,0,0.05,22.4,0)" xlink:href="#bN"/><use transform="matrix(0.05,0,0,0.05,31.399999999999995,0)" xlink:href="#bL"/></g><g id="Q"><use transform="matrix(0.05,0,0,0.05,0,0)" xlink:href="#bP"/><use transform="matrix(0.05,0,0,0.05,3.95,0)" xlink:href="#bU"/></g><g id="R"><use transform="matrix(0.05,0,0,0.05,0,0)" xlink:href="#bU"/><use transform="matrix(0.05,0,0,0.05,10,0)" xlink:href="#bX"/><use transform="matrix(0.05,0,0,0.05,19,0)" xlink:href="#bM"/><use transform="matrix(0.05,0,0,0.05,29,0)" xlink:href="#bQ"/></g><g id="S"><use transform="matrix(0.05,0,0,0.05,0,0)" xlink:href="#bP"/><use transform="matrix(0.05,0,0,0.05,3.95,0)" xlink:href="#cr"/><use transform="matrix(0.05,0,0,0.05,7.3500000000000005,0)" xlink:href="#bR"/><use transform="matrix(0.05,0,0,0.05,11.3,0)" xlink:href="#bT"/></g><path d="M160-131c35 5 61 23 61 61C221 17 115-2 30 0v-248c76 3 177-17 177 60 0 33-19 50-47 57zm-97-11c50-1 110 9 110-42 0-47-63-36-110-37v79zm0 115c55-2 124 14 124-45 0-56-70-42-124-44v89" id="cs"/><path d="M30-248c118-7 216 8 213 122C240-48 200 0 122 0H30v-248zM63-27c89 8 146-16 146-99s-60-101-146-95v194" id="ct"/><g id="T"><use transform="matrix(0.05,0,0,0.05,0,0)" xlink:href="#cs"/><use transform="matrix(0.05,0,0,0.05,12,0)" xlink:href="#ct"/></g><g id="U"><use transform="matrix(0.05,0,0,0.05,0,0)" xlink:href="#bV"/><use transform="matrix(0.05,0,0,0.05,10,0)" xlink:href="#bM"/><use transform="matrix(0.05,0,0,0.05,20,0)" xlink:href="#bL"/><use transform="matrix(0.05,0,0,0.05,25,0)" xlink:href="#bR"/><use transform="matrix(0.05,0,0,0.05,28.950000000000003,0)" xlink:href="#bL"/></g><g id="V"><use transform="matrix(0.05,0,0,0.05,0,0)" xlink:href="#ck"/><use transform="matrix(0.05,0,0,0.05,10,0)" xlink:href="#bK"/><use transform="matrix(0.05,0,0,0.05,20,0)" xlink:href="#bR"/></g><g id="W"><use transform="matrix(0.05,0,0,0.05,0,0)" xlink:href="#bN"/><use transform="matrix(0.05,0,0,0.05,9,0)" xlink:href="#bO"/><use transform="matrix(0.05,0,0,0.05,19,0)" xlink:href="#bP"/><use transform="matrix(0.05,0,0,0.05,22.95,0)" xlink:href="#bM"/><use transform="matrix(0.05,0,0,0.05,32.95,0)" xlink:href="#bQ"/><use transform="matrix(0.05,0,0,0.05,41.95,0)" xlink:href="#bL"/><use transform="matrix(0.05,0,0,0.05,46.95,0)" xlink:href="#bR"/><use transform="matrix(0.05,0,0,0.05,50.900000000000006,0)" xlink:href="#bJ"/><use transform="matrix(0.05,0,0,0.05,60.900000000000006,0)" xlink:href="#bS"/><use transform="matrix(0.05,0,0,0.05,70.9,0)" xlink:href="#bS"/><use transform="matrix(0.05,0,0,0.05,80.9,0)" xlink:href="#bO"/></g><g id="X"><use transform="matrix(0.05,0,0,0.05,0,0)" xlink:href="#bT"/><use transform="matrix(0.05,0,0,0.05,10,0)" xlink:href="#bM"/><use transform="matrix(0.05,0,0,0.05,20,0)" xlink:href="#bN"/></g><g id="Y"><use transform="matrix(0.05,0,0,0.05,0,0)" xlink:href="#ce"/><use transform="matrix(0.05,0,0,0.05,5.95,0)" xlink:href="#bJ"/><use transform="matrix(0.05,0,0,0.05,15.949999999999998,0)" xlink:href="#bK"/><use transform="matrix(0.05,0,0,0.05,25.950000000000003,0)" xlink:href="#bL"/><use transform="matrix(0.05,0,0,0.05,30.950000000000003,0)" xlink:href="#bM"/><use transform="matrix(0.05,0,0,0.05,40.95,0)" xlink:href="#bN"/></g><path d="M115-194c53 0 69 39 70 98 0 66-23 100-70 100C84 3 66-7 56-30L54 0H23l1-261h32v101c10-23 28-34 59-34zm-8 174c40 0 45-34 45-75 0-40-5-75-45-74-42 0-51 32-51 76 0 43 10 73 51 73" id="cu"/><g id="Z"><use transform="matrix(0.05,0,0,0.05,0,0)" xlink:href="#bU"/><use transform="matrix(0.05,0,0,0.05,10,0)" xlink:href="#bV"/><use transform="matrix(0.05,0,0,0.05,20,0)" xlink:href="#bV"/><use transform="matrix(0.05,0,0,0.05,30,0)" xlink:href="#bP"/><use transform="matrix(0.05,0,0,0.05,33.95,0)" xlink:href="#bR"/><use transform="matrix(0.05,0,0,0.05,37.900000000000006,0)" xlink:href="#bQ"/><use transform="matrix(0.05,0,0,0.05,46.900000000000006,0)" xlink:href="#bU"/><use transform="matrix(0.05,0,0,0.05,56.900000000000006,0)" xlink:href="#cu"/><use transform="matrix(0.05,0,0,0.05,66.9,0)" xlink:href="#bP"/><use transform="matrix(0.05,0,0,0.05,70.85000000000001,0)" xlink:href="#bM"/><use transform="matrix(0.05,0,0,0.05,80.85000000000001,0)" xlink:href="#bN"/></g><g id="aa"><use transform="matrix(0.05,0,0,0.05,0,0)" xlink:href="#bU"/><use transform="matrix(0.05,0,0,0.05,10,0)" xlink:href="#bK"/></g><g id="ab"><use transform="matrix(0.05,0,0,0.05,0,0)" xlink:href="#bS"/><use transform="matrix(0.05,0,0,0.05,10,0)" xlink:href="#bR"/><use transform="matrix(0.05,0,0,0.05,13.949999999999998,0)" xlink:href="#bX"/><use transform="matrix(0.05,0,0,0.05,22.95,0)" xlink:href="#bM"/><use transform="matrix(0.05,0,0,0.05,32.95,0)" xlink:href="#bU"/><use transform="matrix(0.05,0,0,0.05,42.95,0)" xlink:href="#bK"/></g><g id="ac"><use transform="matrix(0.05,0,0,0.05,0,0)" xlink:href="#bT"/><use transform="matrix(0.05,0,0,0.05,10,0)" xlink:href="#bK"/></g><g id="ad"><use transform="matrix(0.05,0,0,0.05,0,0)" xlink:href="#cm"/><use transform="matrix(0.05,0,0,0.05,12,0)" xlink:href="#ce"/><use transform="matrix(0.05,0,0,0.05,17.95,0)" xlink:href="#bJ"/><use transform="matrix(0.05,0,0,0.05,27.950000000000003,0)" xlink:href="#bT"/><use transform="matrix(0.05,0,0,0.05,37.95,0)" xlink:href="#bK"/><use transform="matrix(0.05,0,0,0.05,47.95,0)" xlink:href="#bR"/><use transform="matrix(0.05,0,0,0.05,51.900000000000006,0)" xlink:href="#bL"/></g><g id="ae"><use transform="matrix(0.05,0,0,0.05,0,0)" xlink:href="#cl"/><use transform="matrix(0.05,0,0,0.05,10,0)" xlink:href="#bM"/></g><g id="af"><use transform="matrix(0.05,0,0,0.05,0,0)" xlink:href="#bT"/><use transform="matrix(0.05,0,0,0.05,10,0)" xlink:href="#bM"/></g><g id="ag"><use transform="matrix(0.05,0,0,0.05,0,0)" xlink:href="#bN"/><use transform="matrix(0.05,0,0,0.05,9,0)" xlink:href="#bO"/><use transform="matrix(0.05,0,0,0.05,19,0)" xlink:href="#ck"/><use transform="matrix(0.05,0,0,0.05,29,0)" xlink:href="#bK"/><use transform="matrix(0.05,0,0,0.05,39,0)" xlink:href="#bM"/><use transform="matrix(0.05,0,0,0.05,49,0)" xlink:href="#bS"/><use transform="matrix(0.05,0,0,0.05,59,0)" xlink:href="#bQ"/><use transform="matrix(0.05,0,0,0.05,68,0)" xlink:href="#bM"/></g><g id="ah"><use transform="matrix(0.05,0,0,0.05,0,0)" xlink:href="#bT"/><use transform="matrix(0.05,0,0,0.05,10,0)" xlink:href="#bM"/><use transform="matrix(0.05,0,0,0.05,20,0)" xlink:href="#bN"/></g><g id="ai"><use transform="matrix(0.05,0,0,0.05,0,0)" xlink:href="#ce"/><use transform="matrix(0.05,0,0,0.05,5.95,0)" xlink:href="#bJ"/><use transform="matrix(0.05,0,0,0.05,15.949999999999998,0)" xlink:href="#bK"/><use transform="matrix(0.05,0,0,0.05,25.950000000000003,0)" xlink:href="#bL"/><use transform="matrix(0.05,0,0,0.05,30.950000000000003,0)" xlink:href="#bM"/><use transform="matrix(0.05,0,0,0.05,40.95,0)" xlink:href="#bN"/></g><g id="aj"><use transform="matrix(0.05,0,0,0.05,0,0)" xlink:href="#bM"/><use transform="matrix(0.05,0,0,0.05,10,0)" xlink:href="#bN"/><use transform="matrix(0.05,0,0,0.05,19,0)" xlink:href="#bL"/><use transform="matrix(0.05,0,0,0.05,24,0)" xlink:href="#cd"/><use transform="matrix(0.05,0,0,0.05,29.950000000000003,0)" xlink:href="#bR"/><use transform="matrix(0.05,0,0,0.05,33.9,0)" xlink:href="#bP"/></g><g id="ak"><use transform="matrix(0.05,0,0,0.05,0,0)" xlink:href="#cm"/><use transform="matrix(0.05,0,0,0.05,12,0)" xlink:href="#bP"/><use transform="matrix(0.05,0,0,0.05,15.949999999999998,0)" xlink:href="#bK"/><use transform="matrix(0.05,0,0,0.05,25.950000000000003,0)" xlink:href="#bN"/><use transform="matrix(0.05,0,0,0.05,34.95,0)" xlink:href="#bR"/><use transform="matrix(0.05,0,0,0.05,38.900000000000006,0)" xlink:href="#bM"/><use transform="matrix(0.05,0,0,0.05,48.900000000000006,0)" xlink:href="#bK"/><use transform="matrix(0.05,0,0,0.05,58.900000000000006,0)" xlink:href="#ce"/><use transform="matrix(0.05,0,0,0.05,64.85000000000001,0)" xlink:href="#bN"/></g><g id="al"><use transform="matrix(0.05,0,0,0.05,0,0)" xlink:href="#bM"/><use transform="matrix(0.05,0,0,0.05,10,0)" xlink:href="#bS"/></g><g id="am"><use transform="matrix(0.05,0,0,0.05,0,0)" xlink:href="#bQ"/><use transform="matrix(0.05,0,0,0.05,9,0)" xlink:href="#bJ"/><use transform="matrix(0.05,0,0,0.05,19,0)" xlink:href="#bW"/><use transform="matrix(0.05,0,0,0.05,33.95,0)" xlink:href="#bV"/><use transform="matrix(0.05,0,0,0.05,43.95,0)" xlink:href="#bO"/><use transform="matrix(0.05,0,0,0.05,53.95,0)" xlink:href="#bL"/><use transform="matrix(0.05,0,0,0.05,58.95,0)" xlink:href="#bR"/><use transform="matrix(0.05,0,0,0.05,62.900000000000006,0)" xlink:href="#bL"/><use transform="matrix(0.05,0,0,0.05,67.9,0)" xlink:href="#bR"/><use transform="matrix(0.05,0,0,0.05,71.85000000000001,0)" xlink:href="#bJ"/><use transform="matrix(0.05,0,0,0.05,81.85000000000001,0)" xlink:href="#bS"/></g><g id="an"><use transform="matrix(0.05,0,0,0.05,0,0)" xlink:href="#cp"/><use transform="matrix(0.05,0,0,0.05,12,0)" xlink:href="#bO"/><use transform="matrix(0.05,0,0,0.05,22,0)" xlink:href="#bP"/><use transform="matrix(0.05,0,0,0.05,25.950000000000003,0)" xlink:href="#bM"/><use transform="matrix(0.05,0,0,0.05,35.95,0)" xlink:href="#bQ"/><use transform="matrix(0.05,0,0,0.05,44.95,0)" xlink:href="#bL"/><use transform="matrix(0.05,0,0,0.05,49.95,0)" xlink:href="#bR"/><use transform="matrix(0.05,0,0,0.05,53.900000000000006,0)" xlink:href="#bJ"/><use transform="matrix(0.05,0,0,0.05,63.900000000000006,0)" xlink:href="#bS"/></g><g id="ao"><use transform="matrix(0.05,0,0,0.05,0,0)" xlink:href="#bP"/><use transform="matrix(0.05,0,0,0.05,3.95,0)" xlink:href="#bU"/></g><g id="ap"><use transform="matrix(0.05,0,0,0.05,0,0)" xlink:href="#ce"/><use transform="matrix(0.05,0,0,0.05,5.95,0)" xlink:href="#bJ"/><use transform="matrix(0.05,0,0,0.05,15.949999999999998,0)" xlink:href="#bK"/><use transform="matrix(0.05,0,0,0.05,25.950000000000003,0)" xlink:href="#bL"/><use transform="matrix(0.05,0,0,0.05,30.950000000000003,0)" xlink:href="#bM"/></g><g id="aq"><use transform="matrix(0.05,0,0,0.05,0,0)" xlink:href="#ci"/><use transform="matrix(0.05,0,0,0.05,12.950000000000001,0)" xlink:href="#bJ"/></g><g id="ar"><use transform="matrix(0.05,0,0,0.05,0,0)" xlink:href="#cm"/><use transform="matrix(0.05,0,0,0.05,12,0)" xlink:href="#cn"/><use transform="matrix(0.05,0,0,0.05,24,0)" xlink:href="#co"/><use transform="matrix(0.05,0,0,0.05,34.95,0)" xlink:href="#cb"/><use transform="matrix(0.05,0,0,0.05,39.95,0)" xlink:href="#co"/></g><g id="as"><use transform="matrix(0.05,0,0,0.05,0,0)" xlink:href="#cl"/><use transform="matrix(0.05,0,0,0.05,10,0)" xlink:href="#bM"/><use transform="matrix(0.05,0,0,0.05,20,0)" xlink:href="#bN"/></g><g id="at"><use transform="matrix(0.05,0,0,0.05,0,0)" xlink:href="#bT"/><use transform="matrix(0.05,0,0,0.05,10,0)" xlink:href="#bM"/><use transform="matrix(0.05,0,0,0.05,20,0)" xlink:href="#bN"/></g><g id="au"><use transform="matrix(0.05,0,0,0.05,0,0)" xlink:href="#bN"/><use transform="matrix(0.05,0,0,0.05,9,0)" xlink:href="#bJ"/><use transform="matrix(0.05,0,0,0.05,19,0)" xlink:href="#bS"/><use transform="matrix(0.05,0,0,0.05,29,0)" xlink:href="#bL"/></g><g id="av"><use transform="matrix(0.05,0,0,0.05,0,0)" xlink:href="#bW"/><use transform="matrix(0.05,0,0,0.05,14.950000000000001,0)" xlink:href="#bR"/><use transform="matrix(0.05,0,0,0.05,18.900000000000002,0)" xlink:href="#bN"/><use transform="matrix(0.05,0,0,0.05,27.900000000000002,0)" xlink:href="#bM"/><use transform="matrix(0.05,0,0,0.05,37.900000000000006,0)" xlink:href="#bN"/></g><g id="aw"><use transform="matrix(0.05,0,0,0.05,0,0)" xlink:href="#bM"/><use transform="matrix(0.05,0,0,0.05,10,0)" xlink:href="#bS"/></g><g id="ax"><use transform="matrix(0.05,0,0,0.05,0,0)" xlink:href="#bQ"/><use transform="matrix(0.05,0,0,0.05,9,0)" xlink:href="#bJ"/><use transform="matrix(0.05,0,0,0.05,19,0)" xlink:href="#bW"/><use transform="matrix(0.05,0,0,0.05,33.95,0)" xlink:href="#bV"/><use transform="matrix(0.05,0,0,0.05,43.95,0)" xlink:href="#bO"/><use transform="matrix(0.05,0,0,0.05,53.95,0)" xlink:href="#bL"/><use transform="matrix(0.05,0,0,0.05,58.95,0)" xlink:href="#bR"/><use transform="matrix(0.05,0,0,0.05,62.900000000000006,0)" xlink:href="#bL"/><use transform="matrix(0.05,0,0,0.05,67.9,0)" xlink:href="#bR"/><use transform="matrix(0.05,0,0,0.05,71.85000000000001,0)" xlink:href="#bJ"/><use transform="matrix(0.05,0,0,0.05,81.85000000000001,0)" xlink:href="#bS"/></g><g id="ay"><use transform="matrix(0.05,0,0,0.05,0,0)" xlink:href="#bT"/><use transform="matrix(0.05,0,0,0.05,10,0)" xlink:href="#bM"/><use transform="matrix(0.05,0,0,0.05,20,0)" xlink:href="#bN"/></g><g id="az"><use transform="matrix(0.05,0,0,0.05,0,0)" xlink:href="#bU"/><use transform="matrix(0.05,0,0,0.05,10,0)" xlink:href="#bK"/></g><g id="aA"><use transform="matrix(0.05,0,0,0.05,0,0)" xlink:href="#cj"/><use transform="matrix(0.05,0,0,0.05,12.950000000000001,0)" xlink:href="#bU"/><use transform="matrix(0.05,0,0,0.05,22.950000000000003,0)" xlink:href="#bL"/><use transform="matrix(0.05,0,0,0.05,27.950000000000003,0)" xlink:href="#bO"/><use transform="matrix(0.05,0,0,0.05,37.95,0)" xlink:href="#cg"/><use transform="matrix(0.05,0,0,0.05,47.95,0)" xlink:href="#bJ"/><use transform="matrix(0.05,0,0,0.05,57.95,0)" xlink:href="#ce"/><use transform="matrix(0.05,0,0,0.05,63.900000000000006,0)" xlink:href="#bR"/><use transform="matrix(0.05,0,0,0.05,67.85000000000001,0)" xlink:href="#bM"/></g><g id="aB"><use transform="matrix(0.05,0,0,0.05,0,0)" xlink:href="#bT"/><use transform="matrix(0.05,0,0,0.05,10,0)" xlink:href="#bM"/></g><g id="aC"><use transform="matrix(0.05,0,0,0.05,0,0)" xlink:href="#cm"/><use transform="matrix(0.05,0,0,0.05,12,0)" xlink:href="#bU"/><use transform="matrix(0.05,0,0,0.05,22,0)" xlink:href="#bN"/></g><g id="aD"><use transform="matrix(0.05,0,0,0.05,0,0)" xlink:href="#ce"/><use transform="matrix(0.05,0,0,0.05,5.95,0)" xlink:href="#bJ"/><use transform="matrix(0.05,0,0,0.05,15.949999999999998,0)" xlink:href="#bK"/><use transform="matrix(0.05,0,0,0.05,25.950000000000003,0)" xlink:href="#bL"/><use transform="matrix(0.05,0,0,0.05,30.950000000000003,0)" xlink:href="#bM"/></g><g id="aE"><use transform="matrix(0.05,0,0,0.05,0,0)" xlink:href="#bU"/><use transform="matrix(0.05,0,0,0.05,10,0)" xlink:href="#bV"/><use transform="matrix(0.05,0,0,0.05,20,0)" xlink:href="#bV"/><use transform="matrix(0.05,0,0,0.05,30,0)" xlink:href="#bP"/><use transform="matrix(0.05,0,0,0.05,33.95,0)" xlink:href="#bR"/><use transform="matrix(0.05,0,0,0.05,37.900000000000006,0)" xlink:href="#bQ"/><use transform="matrix(0.05,0,0,0.05,46.900000000000006,0)" xlink:href="#bU"/><use transform="matrix(0.05,0,0,0.05,56.900000000000006,0)" xlink:href="#cu"/><use transform="matrix(0.05,0,0,0.05,66.9,0)" xlink:href="#bP"/><use transform="matrix(0.05,0,0,0.05,70.85000000000001,0)" xlink:href="#bM"/></g><g id="aF"><use transform="matrix(0.05,0,0,0.05,0,0)" xlink:href="#ci"/><use transform="matrix(0.05,0,0,0.05,12.950000000000001,0)" xlink:href="#bJ"/></g><g id="aG"><use transform="matrix(0.05,0,0,0.05,0,0)" xlink:href="#cs"/><use transform="matrix(0.05,0,0,0.05,12,0)" xlink:href="#bM"/><use transform="matrix(0.05,0,0,0.05,22,0)" xlink:href="#bN"/><use transform="matrix(0.05,0,0,0.05,31,0)" xlink:href="#bJ"/><use transform="matrix(0.05,0,0,0.05,41,0)" xlink:href="#bR"/><use transform="matrix(0.05,0,0,0.05,44.95,0)" xlink:href="#bS"/></g><path d="M141 0L90-78 38 0H4l68-98-65-92h35l48 74 47-74h35l-64 92 68 98h-35" id="cv"/><g id="aH"><use transform="matrix(0.05,0,0,0.05,0,0)" xlink:href="#bM"/><use transform="matrix(0.05,0,0,0.05,10,0)" xlink:href="#cv"/><use transform="matrix(0.05,0,0,0.05,19,0)" xlink:href="#bR"/><use transform="matrix(0.05,0,0,0.05,22.95,0)" xlink:href="#bN"/><use transform="matrix(0.05,0,0,0.05,31.950000000000003,0)" xlink:href="#bL"/><use transform="matrix(0.05,0,0,0.05,36.95,0)" xlink:href="#bU"/><use transform="matrix(0.05,0,0,0.05,46.95,0)" xlink:href="#bS"/><use transform="matrix(0.05,0,0,0.05,56.95,0)" xlink:href="#bL"/></g><g id="aI"><use transform="matrix(0.05,0,0,0.05,0,0)" xlink:href="#bK"/><use transform="matrix(0.05,0,0,0.05,10,0)" xlink:href="#bS"/></g><g id="aJ"><use transform="matrix(0.05,0,0,0.05,0,0)" xlink:href="#bM"/><use transform="matrix(0.05,0,0,0.05,10,0)" xlink:href="#bW"/><use transform="matrix(0.05,0,0,0.05,24.950000000000003,0)" xlink:href="#bV"/><use transform="matrix(0.05,0,0,0.05,34.95,0)" xlink:href="#bP"/><use transform="matrix(0.05,0,0,0.05,38.900000000000006,0)" xlink:href="#bU"/><use transform="matrix(0.05,0,0,0.05,48.900000000000006,0)" xlink:href="#bQ"/><use transform="matrix(0.05,0,0,0.05,57.900000000000006,0)" xlink:href="#bM"/><use transform="matrix(0.05,0,0,0.05,67.9,0)" xlink:href="#bW"/><use transform="matrix(0.05,0,0,0.05,82.85000000000001,0)" xlink:href="#bM"/><use transform="matrix(0.05,0,0,0.05,92.85000000000001,0)" xlink:href="#bS"/><use transform="matrix(0.05,0,0,0.05,102.85000000000001,0)" xlink:href="#bL"/></g><path d="M143 0L79-87 56-68V0H24v-261h32v163l83-92h37l-77 82L181 0h-38" id="cw"/><g id="aK"><use transform="matrix(0.05,0,0,0.05,0,0)" xlink:href="#bN"/><use transform="matrix(0.05,0,0,0.05,9,0)" xlink:href="#bL"/><use transform="matrix(0.05,0,0,0.05,14,0)" xlink:href="#bJ"/><use transform="matrix(0.05,0,0,0.05,24,0)" xlink:href="#bQ"/><use transform="matrix(0.05,0,0,0.05,33,0)" xlink:href="#cw"/></g><path d="M87 75C49 33 22-17 22-94c0-76 28-126 65-167h31c-38 41-64 92-64 168S80 34 118 75H87" id="cx"/><g id="aL"><use transform="matrix(0.05,0,0,0.05,0,0)" xlink:href="#cx"/><use transform="matrix(0.05,0,0,0.05,5.95,0)" xlink:href="#cm"/><use transform="matrix(0.05,0,0,0.05,17.95,0)" xlink:href="#ce"/><use transform="matrix(0.05,0,0,0.05,23.9,0)" xlink:href="#bJ"/><use transform="matrix(0.05,0,0,0.05,33.9,0)" xlink:href="#bQ"/><use transform="matrix(0.05,0,0,0.05,42.9,0)" xlink:href="#bK"/><use transform="matrix(0.05,0,0,0.05,52.900000000000006,0)" xlink:href="#ce"/><use transform="matrix(0.05,0,0,0.05,58.85,0)" xlink:href="#bM"/><use transform="matrix(0.05,0,0,0.05,68.85,0)" xlink:href="#bW"/><use transform="matrix(0.05,0,0,0.05,83.8,0)" xlink:href="#bM"/><use transform="matrix(0.05,0,0,0.05,93.8,0)" xlink:href="#bS"/><use transform="matrix(0.05,0,0,0.05,103.80000000000001,0)" xlink:href="#bL"/></g><path d="M33-261c38 41 65 92 65 168S71 34 33 75H2C39 34 66-17 66-93S39-220 2-261h31" id="cy"/><g id="aM"><use transform="matrix(0.05,0,0,0.05,0,0)" xlink:href="#cl"/><use transform="matrix(0.05,0,0,0.05,10,0)" xlink:href="#bJ"/><use transform="matrix(0.05,0,0,0.05,20,0)" xlink:href="#bQ"/><use transform="matrix(0.05,0,0,0.05,29,0)" xlink:href="#bU"/><use transform="matrix(0.05,0,0,0.05,39,0)" xlink:href="#bL"/><use transform="matrix(0.05,0,0,0.05,44,0)" xlink:href="#bR"/><use transform="matrix(0.05,0,0,0.05,47.95,0)" xlink:href="#bJ"/><use transform="matrix(0.05,0,0,0.05,57.95,0)" xlink:href="#bS"/><use transform="matrix(0.05,0,0,0.05,67.95,0)" xlink:href="#cy"/></g><path d="M240 0l2-218c-23 76-54 145-80 218h-23L58-218 59 0H30v-248h44l77 211c21-75 51-140 76-211h43V0h-30" id="cz"/><path d="M205 0l-28-72H64L36 0H1l101-248h38L239 0h-34zm-38-99l-47-123c-12 45-31 82-46 123h93" id="cA"/><g id="aN"><use transform="matrix(0.05,0,0,0.05,0,0)" xlink:href="#cj"/><use transform="matrix(0.05,0,0,0.05,12.950000000000001,0)" xlink:href="#bZ"/><use transform="matrix(0.05,0,0,0.05,26.950000000000003,0)" xlink:href="#cz"/><use transform="matrix(0.05,0,0,0.05,41.900000000000006,0)" xlink:href="#cz"/><use transform="matrix(0.05,0,0,0.05,56.85,0)" xlink:href="#cA"/><use transform="matrix(0.05,0,0,0.05,68.85000000000001,0)" xlink:href="#ci"/><use transform="matrix(0.05,0,0,0.05,81.80000000000001,0)" xlink:href="#ct"/><use transform="matrix(0.05,0,0,0.05,94.75000000000001,0)" xlink:href="#cn"/></g><g id="aO"><use transform="matrix(0.05,0,0,0.05,0,0)" xlink:href="#cj"/><use transform="matrix(0.05,0,0,0.05,12.950000000000001,0)" xlink:href="#cl"/><use transform="matrix(0.05,0,0,0.05,22.950000000000003,0)" xlink:href="#cb"/><use transform="matrix(0.05,0,0,0.05,27.950000000000003,0)" xlink:href="#cn"/><use transform="matrix(0.05,0,0,0.05,39.95,0)" xlink:href="#ci"/><use transform="matrix(0.05,0,0,0.05,52.900000000000006,0)" xlink:href="#co"/></g><path d="M197 0v-115H63V0H30v-248h33v105h134v-105h34V0h-34" id="cB"/><g id="aP"><use transform="matrix(0.05,0,0,0.05,0,0)" xlink:href="#cp"/><use transform="matrix(0.05,0,0,0.05,12,0)" xlink:href="#cj"/><use transform="matrix(0.05,0,0,0.05,24.950000000000003,0)" xlink:href="#cB"/><use transform="matrix(0.05,0,0,0.05,37.900000000000006,0)" xlink:href="#cn"/><use transform="matrix(0.05,0,0,0.05,49.900000000000006,0)" xlink:href="#ct"/><use transform="matrix(0.05,0,0,0.05,62.85,0)" xlink:href="#ca"/><use transform="matrix(0.05,0,0,0.05,75.80000000000001,0)" xlink:href="#cl"/><use transform="matrix(0.05,0,0,0.05,85.80000000000001,0)" xlink:href="#cn"/><use transform="matrix(0.05,0,0,0.05,97.80000000000001,0)" xlink:href="#bI"/></g><g id="aQ"><use transform="matrix(0.05,0,0,0.05,0,0)" xlink:href="#bZ"/><use transform="matrix(0.05,0,0,0.05,14,0)" xlink:href="#ce"/><use transform="matrix(0.05,0,0,0.05,19.95,0)" xlink:href="#bR"/><use transform="matrix(0.05,0,0,0.05,23.9,0)" xlink:href="#cg"/><use transform="matrix(0.05,0,0,0.05,33.9,0)" xlink:href="#bR"/><use transform="matrix(0.05,0,0,0.05,37.85,0)" xlink:href="#bS"/><use transform="matrix(0.05,0,0,0.05,47.85,0)" xlink:href="#bM"/></g><g id="aR"><use transform="matrix(0.05,0,0,0.05,0,0)" xlink:href="#bT"/><use transform="matrix(0.05,0,0,0.05,10,0)" xlink:href="#bK"/></g><g id="aS"><use transform="matrix(0.05,0,0,0.05,0,0)" xlink:href="#cu"/><use transform="matrix(0.05,0,0,0.05,10,0)" xlink:href="#bM"/><use transform="matrix(0.05,0,0,0.05,20,0)" xlink:href="#bN"/><use transform="matrix(0.05,0,0,0.05,29,0)" xlink:href="#bJ"/><use transform="matrix(0.05,0,0,0.05,39,0)" xlink:href="#bR"/><use transform="matrix(0.05,0,0,0.05,42.95,0)" xlink:href="#bS"/></g><g id="aT"><use transform="matrix(0.05,0,0,0.05,0,0)" xlink:href="#cj"/><use transform="matrix(0.05,0,0,0.05,12.950000000000001,0)" xlink:href="#ce"/><use transform="matrix(0.05,0,0,0.05,18.900000000000002,0)" xlink:href="#bO"/><use transform="matrix(0.05,0,0,0.05,28.900000000000002,0)" xlink:href="#bU"/><use transform="matrix(0.05,0,0,0.05,38.900000000000006,0)" xlink:href="#bL"/><use transform="matrix(0.05,0,0,0.05,43.900000000000006,0)" xlink:href="#bR"/><use transform="matrix(0.05,0,0,0.05,47.85000000000001,0)" xlink:href="#bJ"/><use transform="matrix(0.05,0,0,0.05,57.85,0)" xlink:href="#bS"/></g><g id="aU"><use transform="matrix(0.05,0,0,0.05,0,0)" xlink:href="#bT"/><use transform="matrix(0.05,0,0,0.05,10,0)" xlink:href="#cr"/><use transform="matrix(0.05,0,0,0.05,13.4,0)" xlink:href="#bK"/><use transform="matrix(0.05,0,0,0.05,23.4,0)" xlink:href="#bS"/></g><g id="aV"><use transform="matrix(0.05,0,0,0.05,0,0)" xlink:href="#bW"/><use transform="matrix(0.05,0,0,0.05,14.950000000000001,0)" xlink:href="#bJ"/><use transform="matrix(0.05,0,0,0.05,24.950000000000003,0)" xlink:href="#bK"/><use transform="matrix(0.05,0,0,0.05,34.95,0)" xlink:href="#bX"/><use transform="matrix(0.05,0,0,0.05,43.95,0)" xlink:href="#bM"/><use transform="matrix(0.05,0,0,0.05,53.95,0)" xlink:href="#bW"/><use transform="matrix(0.05,0,0,0.05,68.9,0)" xlink:href="#bM"/><use transform="matrix(0.05,0,0,0.05,78.9,0)" xlink:href="#bS"/><use transform="matrix(0.05,0,0,0.05,88.9,0)" xlink:href="#bL"/></g><g id="aW"><use transform="matrix(0.05,0,0,0.05,0,0)" xlink:href="#bN"/><use transform="matrix(0.05,0,0,0.05,9,0)" xlink:href="#bL"/><use transform="matrix(0.05,0,0,0.05,14,0)" xlink:href="#bJ"/><use transform="matrix(0.05,0,0,0.05,24,0)" xlink:href="#bQ"/><use transform="matrix(0.05,0,0,0.05,33,0)" xlink:href="#cw"/></g><g id="aX"><use transform="matrix(0.05,0,0,0.05,0,0)" xlink:href="#ce"/><use transform="matrix(0.05,0,0,0.05,5.95,0)" xlink:href="#cf"/><use transform="matrix(0.05,0,0,0.05,15.949999999999998,0)" xlink:href="#cg"/><use transform="matrix(0.05,0,0,0.05,25.950000000000003,0)" xlink:href="#bP"/><use transform="matrix(0.05,0,0,0.05,29.899999999999995,0)" xlink:href="#bM"/></g><g id="aY"><use transform="matrix(0.05,0,0,0.05,0,0)" xlink:href="#bN"/><use transform="matrix(0.05,0,0,0.05,9,0)" xlink:href="#bO"/><use transform="matrix(0.05,0,0,0.05,19,0)" xlink:href="#bP"/><use transform="matrix(0.05,0,0,0.05,22.95,0)" xlink:href="#bM"/><use transform="matrix(0.05,0,0,0.05,32.95,0)" xlink:href="#bQ"/><use transform="matrix(0.05,0,0,0.05,41.95,0)" xlink:href="#bL"/><use transform="matrix(0.05,0,0,0.05,46.95,0)" xlink:href="#bR"/><use transform="matrix(0.05,0,0,0.05,50.900000000000006,0)" xlink:href="#bJ"/><use transform="matrix(0.05,0,0,0.05,60.900000000000006,0)" xlink:href="#bS"/><use transform="matrix(0.05,0,0,0.05,70.9,0)" xlink:href="#bS"/><use transform="matrix(0.05,0,0,0.05,80.9,0)" xlink:href="#bO"/><use transform="matrix(0.05,0,0,0.05,90.9,0)" xlink:href="#bM"/><use transform="matrix(0.05,0,0,0.05,100.9,0)" xlink:href="#bN"/></g><g id="aZ"><use transform="matrix(0.05,0,0,0.05,0,0)" xlink:href="#ci"/><use transform="matrix(0.05,0,0,0.05,12.950000000000001,0)" xlink:href="#bJ"/><use transform="matrix(0.05,0,0,0.05,22.950000000000003,0)" xlink:href="#bK"/><use transform="matrix(0.05,0,0,0.05,32.95,0)" xlink:href="#bX"/><use transform="matrix(0.05,0,0,0.05,41.95,0)" xlink:href="#bM"/><use transform="matrix(0.05,0,0,0.05,51.95,0)" xlink:href="#bU"/><use transform="matrix(0.05,0,0,0.05,61.95,0)" xlink:href="#bK"/></g><g id="ba"><use transform="matrix(0.05,0,0,0.05,0,0)" xlink:href="#bT"/><use transform="matrix(0.05,0,0,0.05,10,0)" xlink:href="#bU"/><use transform="matrix(0.05,0,0,0.05,20,0)" xlink:href="#bS"/><use transform="matrix(0.05,0,0,0.05,30,0)" xlink:href="#bN"/></g><g id="bb"><use transform="matrix(0.05,0,0,0.05,0,0)" xlink:href="#bP"/><use transform="matrix(0.05,0,0,0.05,3.95,0)" xlink:href="#cr"/><use transform="matrix(0.05,0,0,0.05,7.3500000000000005,0)" xlink:href="#bM"/><use transform="matrix(0.05,0,0,0.05,17.35,0)" xlink:href="#bW"/><use transform="matrix(0.05,0,0,0.05,32.300000000000004,0)" xlink:href="#bV"/><use transform="matrix(0.05,0,0,0.05,42.300000000000004,0)" xlink:href="#bP"/><use transform="matrix(0.05,0,0,0.05,46.25000000000001,0)" xlink:href="#bU"/><use transform="matrix(0.05,0,0,0.05,56.25,0)" xlink:href="#bQ"/><use transform="matrix(0.05,0,0,0.05,65.25,0)" xlink:href="#bM"/><use transform="matrix(0.05,0,0,0.05,75.25,0)" xlink:href="#bW"/><use transform="matrix(0.05,0,0,0.05,90.2,0)" xlink:href="#bM"/><use transform="matrix(0.05,0,0,0.05,100.2,0)" xlink:href="#bS"/><use transform="matrix(0.05,0,0,0.05,110.2,0)" xlink:href="#bL"/></g><path d="M109-170H84l-4-78h32zm-65 0H19l-4-78h33" id="cC"/><g id="bc"><use transform="matrix(0.05,0,0,0.05,0,0)" xlink:href="#cC"/><use transform="matrix(0.05,0,0,0.05,6.3500000000000005,0)" xlink:href="#cp"/><use transform="matrix(0.05,0,0,0.05,18.35,0)" xlink:href="#bJ"/><use transform="matrix(0.05,0,0,0.05,28.35,0)" xlink:href="#bK"/><use transform="matrix(0.05,0,0,0.05,38.35,0)" xlink:href="#ce"/><use transform="matrix(0.05,0,0,0.05,44.300000000000004,0)" xlink:href="#bQ"/><use transform="matrix(0.05,0,0,0.05,53.300000000000004,0)" xlink:href="#bM"/></g><g id="bd"><use transform="matrix(0.05,0,0,0.05,0,0)" xlink:href="#cl"/><use transform="matrix(0.05,0,0,0.05,10,0)" xlink:href="#bJ"/><use transform="matrix(0.05,0,0,0.05,20,0)" xlink:href="#bQ"/><use transform="matrix(0.05,0,0,0.05,29,0)" xlink:href="#bU"/><use transform="matrix(0.05,0,0,0.05,39,0)" xlink:href="#bL"/><use transform="matrix(0.05,0,0,0.05,44,0)" xlink:href="#bR"/><use transform="matrix(0.05,0,0,0.05,47.95,0)" xlink:href="#bJ"/><use transform="matrix(0.05,0,0,0.05,57.95,0)" xlink:href="#bS"/><use transform="matrix(0.05,0,0,0.05,67.95,0)" xlink:href="#cC"/></g><g id="be"><use transform="matrix(0.05,0,0,0.05,0,0)" xlink:href="#ce"/><use transform="matrix(0.05,0,0,0.05,5.95,0)" xlink:href="#cf"/><use transform="matrix(0.05,0,0,0.05,15.949999999999998,0)" xlink:href="#cg"/><use transform="matrix(0.05,0,0,0.05,25.950000000000003,0)" xlink:href="#bP"/><use transform="matrix(0.05,0,0,0.05,29.899999999999995,0)" xlink:href="#bM"/></g><g id="bf"><use transform="matrix(0.05,0,0,0.05,0,0)" xlink:href="#cC"/><use transform="matrix(0.05,0,0,0.05,6.3500000000000005,0)" xlink:href="#cz"/><use transform="matrix(0.05,0,0,0.05,21.3,0)" xlink:href="#bJ"/><use transform="matrix(0.05,0,0,0.05,31.3,0)" xlink:href="#bX"/><use transform="matrix(0.05,0,0,0.05,40.3,0)" xlink:href="#bM"/></g><path d="M179-190L93 31C79 59 56 82 12 73V49c39 6 53-20 64-50L1-190h34L92-34l54-156h33" id="cD"/><g id="bg"><use transform="matrix(0.05,0,0,0.05,0,0)" xlink:href="#cp"/><use transform="matrix(0.05,0,0,0.05,12,0)" xlink:href="#bK"/><use transform="matrix(0.05,0,0,0.05,22,0)" xlink:href="#bV"/><use transform="matrix(0.05,0,0,0.05,32,0)" xlink:href="#bV"/><use transform="matrix(0.05,0,0,0.05,42,0)" xlink:href="#bP"/><use transform="matrix(0.05,0,0,0.05,45.95,0)" xlink:href="#cD"/></g><path d="M106-169C34-169 62-67 57 0H25v-261h32l-1 103c12-21 28-36 61-36 89 0 53 116 60 194h-32v-121c2-32-8-49-39-48" id="cE"/><g id="bh"><use transform="matrix(0.05,0,0,0.05,0,0)" xlink:href="#cz"/><use transform="matrix(0.05,0,0,0.05,14.950000000000001,0)" xlink:href="#bM"/><use transform="matrix(0.05,0,0,0.05,24.950000000000003,0)" xlink:href="#bL"/><use transform="matrix(0.05,0,0,0.05,29.950000000000003,0)" xlink:href="#cE"/><use transform="matrix(0.05,0,0,0.05,39.95,0)" xlink:href="#bJ"/><use transform="matrix(0.05,0,0,0.05,49.95,0)" xlink:href="#bT"/><use transform="matrix(0.05,0,0,0.05,59.95,0)" xlink:href="#cC"/></g><g id="bi"><use transform="matrix(0.05,0,0,0.05,0,0)" xlink:href="#bI"/><use transform="matrix(0.05,0,0,0.05,12.950000000000001,0)" xlink:href="#cf"/><use transform="matrix(0.05,0,0,0.05,22.950000000000003,0)" xlink:href="#cg"/><use transform="matrix(0.05,0,0,0.05,32.95,0)" xlink:href="#bP"/><use transform="matrix(0.05,0,0,0.05,36.900000000000006,0)" xlink:href="#bM"/></g><g id="bj"><use transform="matrix(0.05,0,0,0.05,0,0)" xlink:href="#cj"/><use transform="matrix(0.05,0,0,0.05,12.950000000000001,0)" xlink:href="#bI"/><use transform="matrix(0.05,0,0,0.05,25.900000000000002,0)" xlink:href="#cn"/><use transform="matrix(0.05,0,0,0.05,37.900000000000006,0)" xlink:href="#cA"/><use transform="matrix(0.05,0,0,0.05,48.550000000000004,0)" xlink:href="#co"/><use transform="matrix(0.05,0,0,0.05,59.5,0)" xlink:href="#cn"/></g><g id="bk"><use transform="matrix(0.05,0,0,0.05,0,0)" xlink:href="#cm"/><use transform="matrix(0.05,0,0,0.05,12,0)" xlink:href="#bI"/><use transform="matrix(0.05,0,0,0.05,24.950000000000003,0)" xlink:href="#bZ"/><use transform="matrix(0.05,0,0,0.05,38.95,0)" xlink:href="#cj"/><use transform="matrix(0.05,0,0,0.05,51.900000000000006,0)" xlink:href="#ca"/><use transform="matrix(0.05,0,0,0.05,64.85000000000001,0)" xlink:href="#bI"/><use transform="matrix(0.05,0,0,0.05,77.80000000000001,0)" xlink:href="#cn"/><use transform="matrix(0.05,0,0,0.05,89.80000000000001,0)" xlink:href="#cz"/><use transform="matrix(0.05,0,0,0.05,104.75,0)" xlink:href="#cn"/><use transform="matrix(0.05,0,0,0.05,116.75,0)" xlink:href="#ci"/><use transform="matrix(0.05,0,0,0.05,129.70000000000002,0)" xlink:href="#co"/></g><g id="bl"><use transform="matrix(0.05,0,0,0.05,0,0)" xlink:href="#bI"/><use transform="matrix(0.05,0,0,0.05,12.950000000000001,0)" xlink:href="#bM"/><use transform="matrix(0.05,0,0,0.05,22.950000000000003,0)" xlink:href="#bQ"/><use transform="matrix(0.05,0,0,0.05,31.950000000000003,0)" xlink:href="#cE"/><use transform="matrix(0.05,0,0,0.05,41.95,0)" xlink:href="#bM"/><use transform="matrix(0.05,0,0,0.05,51.95,0)" xlink:href="#ce"/><use transform="matrix(0.05,0,0,0.05,57.900000000000006,0)" xlink:href="#bQ"/><use transform="matrix(0.05,0,0,0.05,66.9,0)" xlink:href="#cE"/><use transform="matrix(0.05,0,0,0.05,76.9,0)" xlink:href="#bM"/></g><g id="bm"><use transform="matrix(0.05,0,0,0.05,0,0)" xlink:href="#bW"/><use transform="matrix(0.05,0,0,0.05,14.950000000000001,0)" xlink:href="#ch"/><use transform="matrix(0.05,0,0,0.05,24.950000000000003,0)" xlink:href="#bW"/><use transform="matrix(0.05,0,0,0.05,39.900000000000006,0)" xlink:href="#bM"/></g><g id="bn"><use transform="matrix(0.05,0,0,0.05,0,0)" xlink:href="#bT"/><use transform="matrix(0.05,0,0,0.05,10,0)" xlink:href="#cr"/><use transform="matrix(0.05,0,0,0.05,13.4,0)" xlink:href="#bK"/><use transform="matrix(0.05,0,0,0.05,23.4,0)" xlink:href="#bS"/><use transform="matrix(0.05,0,0,0.05,33.4,0)" xlink:href="#bM"/></g><g id="bo"><use transform="matrix(0.05,0,0,0.05,0,0)" xlink:href="#cm"/><use transform="matrix(0.05,0,0,0.05,12,0)" xlink:href="#ce"/><use transform="matrix(0.05,0,0,0.05,17.95,0)" xlink:href="#bJ"/><use transform="matrix(0.05,0,0,0.05,27.950000000000003,0)" xlink:href="#bQ"/><use transform="matrix(0.05,0,0,0.05,36.95,0)" xlink:href="#bK"/><use transform="matrix(0.05,0,0,0.05,46.95,0)" xlink:href="#ce"/><use transform="matrix(0.05,0,0,0.05,52.900000000000006,0)" xlink:href="#bM"/><use transform="matrix(0.05,0,0,0.05,62.900000000000006,0)" xlink:href="#bW"/><use transform="matrix(0.05,0,0,0.05,77.85000000000001,0)" xlink:href="#bM"/><use transform="matrix(0.05,0,0,0.05,87.85000000000001,0)" xlink:href="#bS"/><use transform="matrix(0.05,0,0,0.05,97.85000000000001,0)" xlink:href="#bL"/></g><g id="bp"><use transform="matrix(0.05,0,0,0.05,0,0)" xlink:href="#cl"/><use transform="matrix(0.05,0,0,0.05,10,0)" xlink:href="#bJ"/><use transform="matrix(0.05,0,0,0.05,20,0)" xlink:href="#bQ"/><use transform="matrix(0.05,0,0,0.05,29,0)" xlink:href="#bU"/><use transform="matrix(0.05,0,0,0.05,39,0)" xlink:href="#bL"/><use transform="matrix(0.05,0,0,0.05,44,0)" xlink:href="#bR"/><use transform="matrix(0.05,0,0,0.05,47.95,0)" xlink:href="#bJ"/><use transform="matrix(0.05,0,0,0.05,57.95,0)" xlink:href="#bS"/></g><path d="M18-150v-26h174v26H18zm0 90v-26h174v26H18" id="cF"/><use transform="matrix(0.05,0,0,0.05,0,0)" xlink:href="#cF" id="bq"/><g id="br"><use transform="matrix(0.05,0,0,0.05,0,0)" xlink:href="#cp"/><use transform="matrix(0.05,0,0,0.05,12,0)" xlink:href="#bJ"/><use transform="matrix(0.05,0,0,0.05,22,0)" xlink:href="#bK"/><use transform="matrix(0.05,0,0,0.05,32,0)" xlink:href="#ce"/><use transform="matrix(0.05,0,0,0.05,37.95,0)" xlink:href="#bQ"/><use transform="matrix(0.05,0,0,0.05,46.95,0)" xlink:href="#bM"/></g><g id="bs"><use transform="matrix(0.05,0,0,0.05,0,0)" xlink:href="#bW"/><use transform="matrix(0.05,0,0,0.05,14.950000000000001,0)" xlink:href="#bJ"/><use transform="matrix(0.05,0,0,0.05,24.950000000000003,0)" xlink:href="#bK"/><use transform="matrix(0.05,0,0,0.05,34.95,0)" xlink:href="#bX"/><use transform="matrix(0.05,0,0,0.05,43.95,0)" xlink:href="#bM"/><use transform="matrix(0.05,0,0,0.05,53.95,0)" xlink:href="#bW"/><use transform="matrix(0.05,0,0,0.05,68.9,0)" xlink:href="#bM"/><use transform="matrix(0.05,0,0,0.05,78.9,0)" xlink:href="#bS"/><use transform="matrix(0.05,0,0,0.05,88.9,0)" xlink:href="#bL"/></g><g id="bt"><use transform="matrix(0.05,0,0,0.05,0,0)" xlink:href="#bV"/><use transform="matrix(0.05,0,0,0.05,10,0)" xlink:href="#ce"/><use transform="matrix(0.05,0,0,0.05,15.949999999999998,0)" xlink:href="#bO"/><use transform="matrix(0.05,0,0,0.05,25.950000000000003,0)" xlink:href="#bQ"/><use transform="matrix(0.05,0,0,0.05,34.95,0)" xlink:href="#bO"/><use transform="matrix(0.05,0,0,0.05,44.95,0)" xlink:href="#bT"/><use transform="matrix(0.05,0,0,0.05,54.95,0)" xlink:href="#bM"/><use transform="matrix(0.05,0,0,0.05,64.95,0)" xlink:href="#bS"/><use transform="matrix(0.05,0,0,0.05,74.95,0)" xlink:href="#bL"/></g><g id="bu"><use transform="matrix(0.05,0,0,0.05,0,0)" xlink:href="#cm"/><use transform="matrix(0.05,0,0,0.05,12,0)" xlink:href="#bJ"/><use transform="matrix(0.05,0,0,0.05,22,0)" xlink:href="#bK"/><use transform="matrix(0.05,0,0,0.05,32,0)" xlink:href="#ce"/></g><g id="bv"><use transform="matrix(0.05,0,0,0.05,0,0)" xlink:href="#bQ"/><use transform="matrix(0.05,0,0,0.05,9,0)" xlink:href="#bM"/><use transform="matrix(0.05,0,0,0.05,19,0)" xlink:href="#bL"/><use transform="matrix(0.05,0,0,0.05,24,0)" xlink:href="#bL"/><use transform="matrix(0.05,0,0,0.05,29,0)" xlink:href="#bM"/></g><g id="bw"><use transform="matrix(0.05,0,0,0.05,0,0)" xlink:href="#ce"/><use transform="matrix(0.05,0,0,0.05,5.95,0)" xlink:href="#bJ"/><use transform="matrix(0.05,0,0,0.05,15.949999999999998,0)" xlink:href="#bK"/><use transform="matrix(0.05,0,0,0.05,25.950000000000003,0)" xlink:href="#bL"/><use transform="matrix(0.05,0,0,0.05,30.950000000000003,0)" xlink:href="#bM"/><use transform="matrix(0.05,0,0,0.05,40.95,0)" xlink:href="#cq"/></g><use transform="matrix(0.05,0,0,0.05,0,0)" xlink:href="#cD" id="bx"/><g id="by"><use transform="matrix(0.05,0,0,0.05,0,0)" xlink:href="#bK"/><use transform="matrix(0.05,0,0,0.05,10,0)" xlink:href="#bS"/><use transform="matrix(0.05,0,0,0.05,20,0)" xlink:href="#bM"/></g><g id="bz"><use transform="matrix(0.05,0,0,0.05,0,0)" xlink:href="#bJ"/><use transform="matrix(0.05,0,0,0.05,10,0)" xlink:href="#bK"/></g><g id="bA"><use transform="matrix(0.05,0,0,0.05,0,0)" xlink:href="#bV"/><use transform="matrix(0.05,0,0,0.05,10,0)" xlink:href="#bP"/><use transform="matrix(0.05,0,0,0.05,13.949999999999998,0)" xlink:href="#bK"/><use transform="matrix(0.05,0,0,0.05,23.95,0)" xlink:href="#bN"/><use transform="matrix(0.05,0,0,0.05,32.95,0)" xlink:href="#bR"/><use transform="matrix(0.05,0,0,0.05,36.900000000000006,0)" xlink:href="#bM"/><use transform="matrix(0.05,0,0,0.05,46.900000000000006,0)" xlink:href="#bK"/><use transform="matrix(0.05,0,0,0.05,56.900000000000006,0)" xlink:href="#ce"/><use transform="matrix(0.05,0,0,0.05,62.85,0)" xlink:href="#bN"/></g><g id="bB"><use transform="matrix(0.05,0,0,0.05,0,0)" xlink:href="#bV"/><use transform="matrix(0.05,0,0,0.05,10,0)" xlink:href="#bJ"/><use transform="matrix(0.05,0,0,0.05,20,0)" xlink:href="#bK"/><use transform="matrix(0.05,0,0,0.05,30,0)" xlink:href="#ce"/></g><g id="bC"><use transform="matrix(0.05,0,0,0.05,0,0)" xlink:href="#bQ"/><use transform="matrix(0.05,0,0,0.05,9,0)" xlink:href="#bM"/></g><g id="bD"><use transform="matrix(0.05,0,0,0.05,0,0)" xlink:href="#cm"/><use transform="matrix(0.05,0,0,0.05,12,0)" xlink:href="#ce"/><use transform="matrix(0.05,0,0,0.05,17.95,0)" xlink:href="#bJ"/><use transform="matrix(0.05,0,0,0.05,27.950000000000003,0)" xlink:href="#bQ"/><use transform="matrix(0.05,0,0,0.05,36.95,0)" xlink:href="#bK"/><use transform="matrix(0.05,0,0,0.05,46.95,0)" xlink:href="#ce"/><use transform="matrix(0.05,0,0,0.05,52.900000000000006,0)" xlink:href="#bM"/><use transform="matrix(0.05,0,0,0.05,62.900000000000006,0)" xlink:href="#bW"/><use transform="matrix(0.05,0,0,0.05,77.85000000000001,0)" xlink:href="#bM"/><use transform="matrix(0.05,0,0,0.05,87.85000000000001,0)" xlink:href="#bS"/><use transform="matrix(0.05,0,0,0.05,97.85000000000001,0)" xlink:href="#bL"/></g><path d="M63-220v92h138v28H63V0H30v-248h175v28H63" id="cG"/><g id="bE"><use transform="matrix(0.05,0,0,0.05,0,0)" xlink:href="#cG"/><use transform="matrix(0.05,0,0,0.05,10.950000000000001,0)" xlink:href="#cb"/><use transform="matrix(0.05,0,0,0.05,15.950000000000001,0)" xlink:href="#ci"/></g><path d="M194 0L95-120 63-95V0H30v-248h33v124l119-124h40L117-140 236 0h-42" id="cH"/><g id="bF"><use transform="matrix(0.05,0,0,0.05,0,0)" xlink:href="#co"/><use transform="matrix(0.05,0,0,0.05,9.600000000000001,0)" xlink:href="#cA"/><use transform="matrix(0.05,0,0,0.05,21.6,0)" xlink:href="#cH"/><use transform="matrix(0.05,0,0,0.05,33.6,0)" xlink:href="#cn"/></g><g id="bG"><use transform="matrix(0.05,0,0,0.05,0,0)" xlink:href="#cG"/><use transform="matrix(0.05,0,0,0.05,10.950000000000001,0)" xlink:href="#bI"/><use transform="matrix(0.05,0,0,0.05,23.900000000000002,0)" xlink:href="#bZ"/><use transform="matrix(0.05,0,0,0.05,37.900000000000006,0)" xlink:href="#cz"/></g><g id="bH"><use transform="matrix(0.05,0,0,0.05,0,0)" xlink:href="#cp"/><use transform="matrix(0.05,0,0,0.05,12,0)" xlink:href="#co"/><use transform="matrix(0.05,0,0,0.05,22.6,0)" xlink:href="#bZ"/><use transform="matrix(0.05,0,0,0.05,36.6,0)" xlink:href="#cj"/><use transform="matrix(0.05,0,0,0.05,49.550000000000004,0)" xlink:href="#cH"/></g></defs></g></svg>